<?xml version="1.0" encoding="iso-8859-1"?>
<!-- Generator: Adobe Illustrator 19.0.0, SVG Export Plug-In . SVG Version: 6.00 Build 0)  -->
<svg version="1.1" id="Layer_1" xmlns="http://www.w3.org/2000/svg" xmlns:xlink="http://www.w3.org/1999/xlink" x="0px" y="0px"
	 viewBox="0 0 512 512" style="enable-background:new 0 0 512 512;" xml:space="preserve">
<circle style="fill:#00D2FF;" cx="256" cy="256" r="229.517"/>
<path style="fill:#28AFF0;" d="M256,26.483C129.241,26.483,26.483,129.241,26.483,256S129.241,485.517,256,485.517
	S485.517,382.759,485.517,256S382.759,26.483,256,26.483z M256,441.379c-102.382,0-185.379-82.997-185.379-185.379
	S153.618,70.621,256,70.621S441.379,153.618,441.379,256S358.382,441.379,256,441.379z"/>
<path style="fill:#8CE6FF;" d="M334.044,327.904l-57.673-92.276l-92.276-57.673c-4.008-2.505-8.644,2.132-6.14,6.14l57.673,92.276
	l92.276,57.673C331.912,336.548,336.548,331.912,334.044,327.904z"/>
<path style="fill:#959CB3;" d="M256,0C114.615,0,0,114.615,0,256s114.615,256,256,256s256-114.615,256-256S397.385,0,256,0z
	 M256,476.69c-121.884,0-220.69-98.806-220.69-220.69S134.116,35.31,256,35.31S476.69,134.116,476.69,256S377.884,476.69,256,476.69
	z"/>
<path style="fill:#707487;" d="M256,35.31C134.116,35.31,35.31,134.116,35.31,256S134.116,476.69,256,476.69
	S476.69,377.884,476.69,256S377.884,35.31,256,35.31z M256,459.034c-112.134,0-203.034-90.902-203.034-203.034
	c0-112.134,90.901-203.034,203.034-203.034S459.034,143.866,459.034,256C459.034,368.132,368.134,459.034,256,459.034z"/>
<path style="fill:#8CE6FF;" d="M423.724,247.172h-9.274C409.991,166.61,345.39,102.009,264.828,97.55v-9.274
	c0-4.875-3.953-8.828-8.828-8.828s-8.828,3.953-8.828,8.828v9.274C166.61,102.009,102.009,166.61,97.55,247.172h-9.274
	c-4.875,0-8.828,3.953-8.828,8.828s3.953,8.828,8.828,8.828h9.274c4.459,80.563,69.059,145.163,149.622,149.622v9.274
	c0,4.875,3.953,8.828,8.828,8.828s8.828-3.953,8.828-8.828v-9.274c80.563-4.459,145.163-69.059,149.622-149.622h9.274
	c4.875,0,8.828-3.953,8.828-8.828S428.599,247.172,423.724,247.172z M273.534,396.034c-0.632-9.177-8.196-16.448-17.534-16.448
	c-9.337,0-16.902,7.271-17.534,16.448c-63.86-7.96-114.541-58.642-122.502-122.502c9.178-0.631,16.449-8.195,16.449-17.533
	c0-9.337-7.271-16.902-16.448-17.534c7.96-63.86,58.642-114.541,122.502-122.502c0.631,9.178,8.195,16.449,17.533,16.449
	c9.337,0,16.902-7.271,17.534-16.448c63.86,7.96,114.541,58.642,122.501,122.502c-9.178,0.631-16.449,8.195-16.449,17.533
	c0,9.337,7.271,16.902,16.448,17.534C388.074,337.394,337.394,388.074,273.534,396.034z"/>
<path style="fill:#E4EAF6;" d="M363.367,142.551L227.479,227.48L142.55,363.368c-2.482,3.97,2.112,8.564,6.082,6.082l135.887-84.929
	l84.929-135.887C371.93,144.663,367.337,140.07,363.367,142.551z"/>
<path style="fill:#FF6464;" d="M227.48,227.48l57.039,57.039l84.929-135.887c2.482-3.97-2.112-8.564-6.082-6.082L227.48,227.48z"/>
<circle style="fill:#5B5D6E;" cx="256" cy="256" r="17.655"/>
<g>
</g>
<g>
</g>
<g>
</g>
<g>
</g>
<g>
</g>
<g>
</g>
<g>
</g>
<g>
</g>
<g>
</g>
<g>
</g>
<g>
</g>
<g>
</g>
<g>
</g>
<g>
</g>
<g>
</g>
</svg>
