<?xml version="1.0" standalone="yes"?>
<svg xmlns="http://www.w3.org/2000/svg" width="512" height="512">
<path style="fill:#010101; stroke:none;" d="M0 0L0 512L512 512L512 0L0 0z"/>
<path style="fill:#caced9; stroke:none;" d="M203 277C195.991 277 177.141 273.642 171.603 278.028C167.595 281.202 169.042 303.151 170.318 307.957C172.355 315.631 187.766 323.558 193.076 330C207.688 347.724 215.535 372.031 212.714 395C211.236 407.032 206.979 418.738 200.575 429C194.2 439.215 185.996 447.904 176 454.642C110.919 498.51 21.0889 433.862 47.0787 358C51.2565 345.805 57.9839 334.217 67.0147 325.001C71.5547 320.367 81.7591 315.409 84.3966 309.624C87.343 303.162 85 291.062 85 284L85 224L139 224L139 213L203 213L203 192L139 192L139 171L203 171L203 149L139 149L139 128L203 128L203 107L139 107L139 85L203 85C202.992 10.3723 98.9116 -18.6356 62.3117 48C49.4019 71.5042 53 99.1619 53 125L53 235C53 252.36 55.5176 271.861 52.8519 289C51.25 299.298 34.572 310.871 28.6921 320C15.8824 339.888 9.72333 363.418 10.0039 387C10.1577 399.935 13.12 412.835 17.3441 425C47.7345 512.524 171.196 528.048 223.964 453C248.791 417.69 253.167 369.874 233.73 331C229.276 322.093 223.491 313.402 216.829 306C212.708 301.42 205.785 296.917 203.603 291C202.087 286.888 203 281.33 203 277M311 42L306 53C342.874 53.0243 377.929 79.3417 383 117C419.904 118.585 437 147.387 437 181L472 177L479 173L493 159L497 152L501.251 133L497 104L493 97L483 86L479 83L458 75.4645L448.008 72.6821L436 46L437 44C427.817 35.9741 421.861 26.7693 411 20.2863C387.302 6.14066 355.093 7.45947 332 22.3256C323.779 27.6178 318.34 35.8521 311 42z"/>
<path style="fill:#656b7b; stroke:none;" d="M367 10L367 11L376 11L367 10M377.667 10.3333L378.333 10.6667L377.667 10.3333M359.667 11.3333L360.333 11.6667L359.667 11.3333M386 11L387 12L386 11M355.667 12.3333L356.333 12.6667L355.667 12.3333M390.667 12.3333L391.333 12.6667L390.667 12.3333M352 13L353 14L352 13M394 13L395 14L394 13M345.667 15.3333L346.333 15.6667L345.667 15.3333M400 15L401 16L400 15M343 16L344 17L343 16M341 17L342 18L341 17M405 17L406 18L405 17M339 18L340 19L339 18M407 18L408 19L407 18M335 20L336 21L335 20M411 20L412 21L411 20M334 21L335 22L334 21M412 21L413 22L412 21M414 22L415 23L414 22M329 24L330 25L329 24M417 24L418 25L417 24M328 25L329 26L328 25M418 25L419 26L418 25M419 26L420 27L419 26M421 27L422 28L421 27M324 28L325 29L324 28M323 29L324 30L323 29M322 30L323 31L322 30M321 31L322 32L321 31M320 32L321 33L320 32M426 32L427 33L426 32M427 33L428 34L427 33M318 34L319 35L318 34M317 35L318 36L317 35M429 35L430 36L429 35M430 36L431 37L430 36M315 37L316 38L315 37M431 38L432 39L431 38M432 39L433 40L432 39M313 40L314 41L313 40M433 40L434 41L433 40M312 41L313 42L312 41M434 41L435 42L434 41M311 43L312 44L311 43M435 43L436 44L435 43M310 44L311 45L310 44M436 45L437 46L436 45M309 46L310 47L309 46M308 47L309 48L308 47M438 48L439 49L438 48M307.333 49.6667L307.667 50.3333L307.333 49.6667M439 50L440 51L439 50M306 51L307 52L306 51M440.333 51.6667L440.667 52.3333L440.333 51.6667M320 182C321.855 159.32 342.293 147.008 351 128L353 128C361.761 146.898 382.153 159.421 384 182L454 182L454 181L437 181C437 172.339 437.749 163.402 435.229 155C428.287 131.858 406.612 117.487 383 117C381.995 104.7 376.564 92.8002 369.24 83C358.263 68.3121 341.124 57.5036 323 54.4352C318.492 53.6719 309.724 51.1117 305.649 54.0278C299.805 58.2094 303.11 69.0115 297.567 72.9869C293.924 75.5999 287.28 75.2204 283 76.4283C274.255 78.8961 266.459 83.598 260.04 90.0394C233.399 116.772 243.7 166.425 280 178.644C292.942 183.001 306.557 182 320 182M441 54L442 55L441 54M442 56L443 57L442 56M443 59L444 60L443 59M444 62L445 63L444 62M445 65L446 66L445 65M446 68L446 71L447 71L446 68z"/>
<path style="fill:#caced9; stroke:none;" d="M299 71L300 72L299 71z"/>
<path style="fill:#656b7b; stroke:none;" d="M448 74L448 75L454 75L448 74M458.667 75.3333L459.333 75.6667L458.667 75.3333M462.667 76.3333L463.333 76.6667L462.667 76.3333M465.667 77.3333L466.333 77.6667L465.667 77.3333M468 78L469 79L468 78M470 79L471 80L470 79M473 80L474 81L473 80M474 81L475 82L474 81M476 82L477 83L476 82M477 83L478 84L477 83M479 84L480 85L479 84M139 85L139 107L203 107L203 85L139 85z"/>
<path style="fill:#caced9; stroke:none;" d="M265 85L266 86L265 85z"/>
<path style="fill:#656b7b; stroke:none;" d="M480 85L481 86L480 85M481 86L482 87L481 86M483 87L484 88L483 87M484 88L485 89L484 88M485 89L486 90L485 89M486 90L487 91L486 90M487 91L488 92L487 91M488 92L489 93L488 92M489 93L490 94L489 93M490 95L491 96L490 95M491 96L492 97L491 96z"/>
<path style="fill:#caced9; stroke:none;" d="M253 98L254 99L253 98z"/>
<path style="fill:#656b7b; stroke:none;" d="M492 98L493 99L492 98M493 99L494 100L493 99M494 101L495 102L494 101M495.333 102.667L495.667 103.333L495.333 102.667M496 105L497 106L496 105M497 107L498 108L497 107M498 110L499 111L498 110M499 113L500 114L499 113M500.333 116.667L500.667 117.333L500.333 116.667M501 122L502 123L501 122M501 124L501 132L502 132L501 124M139 128L139 149L203 149L203 128L139 128z"/>
<path style="fill:#1faffe; stroke:none;" d="M351 128C340.277 143.682 322.357 158.909 320.174 179C315.975 217.635 376.308 227.296 383.532 189C388.026 165.181 365.166 145.477 353 128L351 128z"/>
<path style="fill:#656b7b; stroke:none;" d="M501 133L502 134L501 133M500 137L500 140L501 140L500 137M499 143L500 144L499 143M498.333 145.667L498.667 146.333L498.333 145.667M497 148L498 149L497 148M496 150L497 151L496 150M495.333 152.667L495.667 153.333L495.333 152.667M494 154L495 155L494 154M493 156L494 157L493 156z"/>
<path style="fill:#caced9; stroke:none;" d="M253 157L254 158L253 157z"/>
<path style="fill:#656b7b; stroke:none;" d="M492 157L493 158L492 157M491 159L492 160L491 159M490 160L491 161L490 160M488 163L489 164L488 163M487 164L488 165L487 164M486 165L487 166L486 165M485 166L486 167L485 166M484 167L485 168L484 167z"/>
<path style="fill:#caced9; stroke:none;" d="M363.607 169.032C358.975 172.642 366.928 181.054 371.242 177.099C375.439 173.252 367.872 165.709 363.607 169.032z"/>
<path style="fill:#656b7b; stroke:none;" d="M483 168L484 169L483 168z"/>
<path style="fill:#caced9; stroke:none;" d="M265 170L266 171L265 170z"/>
<path style="fill:#656b7b; stroke:none;" d="M480 170L481 171L480 170M139 171L139 192L203 192L203 171L139 171M479 171L480 172L479 171M477 172L478 173L477 172M476 173L477 174L476 173M474 174L475 175L474 174M472.667 175.333L473.333 175.667L472.667 175.333M470 176L471 177L470 176M468 177L469 178L468 177M465.667 178.333L466.333 178.667L465.667 178.333M462 179L463 180L462 179M457 180L457 181L460 181L457 180M139 213L139 235L203 235L203 213L139 213z"/>
<path style="fill:#df2c4e; stroke:none;" d="M85 224L85 283C85 290.31 87.2412 302.036 84.3966 308.816C81.2048 316.423 67.3182 323.123 61.8079 330C45.6444 350.173 39.8309 376.748 44.4244 402C58.6222 480.05 173.403 493.45 205.561 421C218.333 392.226 214.68 357.168 195.497 332C189.482 324.109 173.964 316.564 170.603 307.957C167.367 299.669 170 285.877 170 277L139 277L139 256L170 256L170 235L139 235L139 224L85 224z"/>
<path style="fill:#1faffe; stroke:none;" d="M425 224C417.662 234.542 408.84 244 402.065 255C398.42 260.918 395.267 268.067 394.301 275C388.762 314.755 452.983 322.657 458.7 283C459.372 278.334 459.096 273.484 457.64 269C454.856 260.425 449.779 252.297 444.573 245C439.733 238.216 433.316 226.383 425 224z"/>
<path style="fill:#caced9; stroke:none;" d="M170 235L170 256L203 256L203 235L170 235z"/>
<path style="fill:#656b7b; stroke:none;" d="M139 256L139 277L203 277L203 256L139 256z"/>
<path style="fill:#caced9; stroke:none;" d="M438.333 265.043C433.568 268.161 440.305 275.763 444.681 273.632C450.235 270.927 443.553 261.629 438.333 265.043z"/>
<path style="fill:#656b7b; stroke:none;" d="M81 312L82 313L81 312M62 329L63 330L62 329z"/>
<path style="fill:#caced9; stroke:none;" d="M172.019 338.757C159.488 343.418 173.346 363.424 183.956 359.254C196.318 354.395 182.614 334.816 172.019 338.757z"/>
<path style="fill:#656b7b; stroke:none;" d="M46 359L47 360L46 359z"/>
<path style="fill:#caced9; stroke:none;" d="M158 359.483C146.67 361.398 143.673 373.407 147.479 383C152.111 394.672 165.091 404.303 178 401.656C188.269 399.55 190.052 388.462 187.25 380C183.509 368.702 170.71 357.335 158 359.483z"/>
<path style="fill:#656b7b; stroke:none;" d="M43.3333 372.667L43.6667 373.333L43.3333 372.667M212 373L213 374L212 373M43.3333 396.667L43.6667 397.333L43.3333 396.667M44 402L45 403L44 402M211 402L212 403L211 402M46 410L47 411L46 410M49 418L50 419L49 418M50 420L51 421L50 420M52 424L53 425L52 424M53 426L54 427L53 426M56 431L57 432L56 431M62 439L63 440L62 439M71 448L72 449L71 448M85 458L86 459L85 458M87 459L88 460L87 459M91 461L92 462L91 461M93 462L94 463L93 462M101 465L102 466L101 465M109 467L110 468L109 467M146 467L147 468L146 467M114.667 468.333L115.333 468.667L114.667 468.333M126.667 469.333L127.333 469.667L126.667 469.333z"/>
</svg>
