<svg width="263" height="27" viewBox="0 0 263 27" fill="none" xmlns="http://www.w3.org/2000/svg">
<path d="M8.24564 26L7.28895 26.2911L7.50466 27H8.24564V26ZM0.577641 0.799998V-0.200002H-0.771915L-0.37905 1.09111L0.577641 0.799998ZM6.12164 0.799998L7.08167 0.520093L6.87172 -0.200002H6.12164V0.799998ZM10.2256 14.876L9.26561 15.1559L9.27094 15.1742L9.27696 15.1922L10.2256 14.876ZM10.6576 16.532L9.67706 16.7281L9.68173 16.7514L9.6875 16.7745L10.6576 16.532ZM10.9816 18.224L9.99004 18.3533L9.99328 18.3782L9.99777 18.4029L10.9816 18.224ZM11.1976 19.736L10.2026 19.8355L10.2054 19.8638L10.2099 19.892L11.1976 19.736ZM11.3776 20.888L11.336 21.8871L12.5509 21.9378L12.366 20.7359L11.3776 20.888ZM10.5136 20.852L9.53584 20.6425L9.28742 21.8018L10.472 21.8511L10.5136 20.852ZM11.0536 18.332L12.0315 18.5415L12.0329 18.5346L11.0536 18.332ZM11.4496 16.496L10.482 16.2436L10.478 16.2589L10.4745 16.2744L11.4496 16.496ZM11.9536 14.84L11.0191 14.4843L11.0139 14.4978L11.0091 14.5115L11.9536 14.84ZM15.9136 4.436V3.436H15.2243L14.9791 4.08027L15.9136 4.436ZM20.3776 4.436L21.3144 4.08594L21.0715 3.436H20.3776V4.436ZM24.2656 14.84L23.3289 15.1901L23.3329 15.2008L23.3372 15.2114L24.2656 14.84ZM24.9496 16.928L23.9795 17.1705L23.9847 17.1914L23.9908 17.2121L24.9496 16.928ZM25.4176 18.836L24.4356 19.0249L24.4371 19.0321L25.4176 18.836ZM25.7776 20.672L25.9565 21.6559L26.9504 21.4752L26.7596 20.4832L25.7776 20.672ZM24.9856 20.816L23.9957 20.6746L23.7995 22.0481L25.1645 21.7999L24.9856 20.816ZM25.1296 19.52L24.1374 19.396L24.1338 19.4246L24.1319 19.4535L25.1296 19.52ZM25.2376 18.476L24.2493 18.3239L24.2435 18.3615L24.2406 18.3993L25.2376 18.476ZM25.3816 17.54L26.3701 17.6921L26.3716 17.6814L25.3816 17.54ZM25.5976 16.388L26.5739 16.6049L26.5762 16.594L25.5976 16.388ZM26.0296 14.804L26.9821 15.1088L26.9862 15.0959L26.9899 15.083L26.0296 14.804ZM30.0976 0.799998V-0.200002H29.3468L29.1373 0.521041L30.0976 0.799998ZM35.5696 0.799998L36.5256 1.0936L36.9229 -0.200002H35.5696V0.799998ZM27.8296 26V27H28.5686L28.7856 26.2936L27.8296 26ZM23.8336 26L22.911 26.3856L23.1677 27H23.8336V26ZM17.6056 11.096L17.7297 10.1037L16.0178 9.88973L16.683 11.4816L17.6056 11.096ZM18.1816 11.168L19.1131 11.532L19.5808 10.3351L18.3057 10.1757L18.1816 11.168ZM12.3856 26V27H13.0685L13.3171 26.364L12.3856 26ZM9.20233 25.7089L1.53433 0.508891L-0.37905 1.09111L7.28895 26.2911L9.20233 25.7089ZM0.577641 1.8H6.12164V-0.200002H0.577641V1.8ZM5.16161 1.0799L9.26561 15.1559L11.1857 14.5961L7.08167 0.520093L5.16161 1.0799ZM9.27696 15.1922C9.43006 15.6515 9.564 16.1628 9.67706 16.7281L11.6382 16.3359C11.5113 15.7012 11.3572 15.1085 11.1743 14.5598L9.27696 15.1922ZM9.6875 16.7745C9.82279 17.3157 9.92333 17.8419 9.99004 18.3533L11.9732 18.0947C11.896 17.5021 11.7805 16.9003 11.6278 16.2895L9.6875 16.7745ZM9.99777 18.4029C10.0895 18.9075 10.1575 19.3849 10.2026 19.8355L12.1927 19.6365C12.1417 19.1271 12.0658 18.5965 11.9655 18.0451L9.99777 18.4029ZM10.2099 19.892C10.2818 20.3472 10.3415 20.7298 10.3893 21.0401L12.366 20.7359C12.3177 20.4222 12.2575 20.0368 12.1854 19.58L10.2099 19.892ZM11.4193 19.8889L10.5553 19.8529L10.472 21.8511L11.336 21.8871L11.4193 19.8889ZM11.4914 21.0615C11.7074 20.0535 11.8874 19.2135 12.0314 18.5415L10.0758 18.1225C9.93184 18.7945 9.75184 19.6345 9.53584 20.6425L11.4914 21.0615ZM12.0329 18.5346C12.176 17.8431 12.3066 17.2377 12.4248 16.7176L10.4745 16.2744C10.3527 16.8103 10.2193 17.4289 10.0744 18.1294L12.0329 18.5346ZM12.4173 16.7484C12.5544 16.2227 12.7146 15.6961 12.8981 15.1685L11.0091 14.5115C10.8086 15.0879 10.6329 15.6653 10.482 16.2436L12.4173 16.7484ZM12.8882 15.1957L16.8482 4.79172L14.9791 4.08027L11.0191 14.4843L12.8882 15.1957ZM15.9136 5.436H20.3776V3.436H15.9136V5.436ZM19.4409 4.78606L23.3289 15.1901L25.2024 14.4899L21.3144 4.08594L19.4409 4.78606ZM23.3372 15.2114C23.6103 15.8943 23.8237 16.5472 23.9795 17.1705L25.9198 16.6855C25.7396 15.9648 25.497 15.2257 25.1941 14.4686L23.3372 15.2114ZM23.9908 17.2121C24.1741 17.8307 24.3222 18.4349 24.4356 19.0248L26.3996 18.6472C26.2731 17.9891 26.1091 17.3213 25.9084 16.6439L23.9908 17.2121ZM24.4371 19.0321C24.5566 19.6296 24.6761 20.2392 24.7956 20.8608L26.7596 20.4832C26.6392 19.8568 26.5187 19.2424 26.3982 18.6399L24.4371 19.0321ZM25.5988 19.6881L24.8068 19.8321L25.1645 21.7999L25.9565 21.6559L25.5988 19.6881ZM25.9756 20.9574C26.0498 20.4378 26.1012 19.9794 26.1274 19.5865L24.1319 19.4535C24.11 19.7806 24.0655 20.1862 23.9957 20.6746L25.9756 20.9574ZM26.1219 19.644C26.1714 19.2478 26.2092 18.8837 26.2347 18.5527L24.2406 18.3993C24.218 18.6923 24.1838 19.0242 24.1374 19.396L26.1219 19.644ZM26.226 18.6281C26.274 18.3161 26.322 18.0041 26.37 17.6921L24.3933 17.3879C24.3453 17.6999 24.2973 18.0119 24.2493 18.3239L26.226 18.6281ZM26.3716 17.6814C26.4151 17.377 26.4818 17.019 26.5738 16.6049L24.6215 16.1711C24.5215 16.621 24.4442 17.031 24.3917 17.3986L26.3716 17.6814ZM26.5762 16.594C26.6632 16.1806 26.7971 15.6868 26.9821 15.1088L25.0772 14.4992C24.8782 15.1212 24.7241 15.6834 24.6191 16.182L26.5762 16.594ZM26.9899 15.083L31.0579 1.07896L29.1373 0.521041L25.0693 14.525L26.9899 15.083ZM30.0976 1.8H35.5696V-0.200002H30.0976V1.8ZM34.6137 0.506392L26.8737 25.7064L28.7856 26.2936L36.5256 1.0936L34.6137 0.506392ZM27.8296 25H23.8336V27H27.8296V25ZM24.7563 25.6144L18.5283 10.7104L16.683 11.4816L22.911 26.3856L24.7563 25.6144ZM17.4816 12.0883L18.0576 12.1603L18.3057 10.1757L17.7297 10.1037L17.4816 12.0883ZM17.2502 10.804L11.4542 25.636L13.3171 26.364L19.1131 11.532L17.2502 10.804ZM12.3856 25H8.24564V27H12.3856V25ZM39.2467 26H38.2467V27H39.2467V26ZM39.2467 0.799998V-0.200002H38.2467V0.799998H39.2467ZM56.2747 0.799998H57.2747V-0.200002H56.2747V0.799998ZM56.2747 5.552V6.552H57.2747V5.552H56.2747ZM44.5027 5.552V4.552H43.5027V5.552H44.5027ZM44.5027 21.248H43.5027V22.248H44.5027V21.248ZM56.5267 21.248H57.5267V20.248H56.5267V21.248ZM56.5267 26V27H57.5267V26H56.5267ZM41.7667 15.452H40.7667V16.452H41.7667V15.452ZM41.7667 10.844V9.844H40.7667V10.844H41.7667ZM54.5467 10.844H55.5467V9.844H54.5467V10.844ZM54.5467 15.452V16.452H55.5467V15.452H54.5467ZM40.2467 26V0.799998H38.2467V26H40.2467ZM39.2467 1.8H56.2747V-0.200002H39.2467V1.8ZM55.2747 0.799998V5.552H57.2747V0.799998H55.2747ZM56.2747 4.552H44.5027V6.552H56.2747V4.552ZM43.5027 5.552V21.248H45.5027V5.552H43.5027ZM44.5027 22.248H56.5267V20.248H44.5027V22.248ZM55.5267 21.248V26H57.5267V21.248H55.5267ZM56.5267 25H39.2467V27H56.5267V25ZM42.7667 15.452V10.844H40.7667V15.452H42.7667ZM41.7667 11.844H54.5467V9.844H41.7667V11.844ZM53.5467 10.844V15.452H55.5467V10.844H53.5467ZM54.5467 14.452H41.7667V16.452H54.5467V14.452ZM59.1103 26L58.1791 25.6355L57.645 27H59.1103V26ZM68.9743 0.799998V-0.200002H68.2918L68.0431 0.435499L68.9743 0.799998ZM73.7983 0.799998L74.7299 0.436653L74.4816 -0.200002H73.7983V0.799998ZM83.6263 26V27H85.0896L84.5579 25.6367L83.6263 26ZM78.0823 26L77.1456 26.3503L77.3886 27H78.0823V26ZM73.0063 12.428L73.9429 12.0777L73.9426 12.0769L73.0063 12.428ZM72.4663 10.952L71.5138 11.2568L71.5193 11.2739L71.5254 11.2907L72.4663 10.952ZM71.2423 7.136L70.2864 7.4301L70.2898 7.44077L71.2423 7.136ZM70.8103 5.588L70.7733 4.58868L69.5584 4.63368L69.8368 5.81704L70.8103 5.588ZM71.7823 5.552L72.7499 5.80442L73.0894 4.5029L71.7453 4.55268L71.7823 5.552ZM71.2783 7.28L70.3258 6.97522L70.3219 6.98756L70.3183 7L71.2783 7.28ZM70.7383 9.08L71.6908 9.38479L71.694 9.37408L70.7383 9.08ZM70.1263 10.844L69.1899 10.4929L69.1899 10.4929L70.1263 10.844ZM69.5143 12.536L70.45 12.8888L70.4545 12.8767L70.4588 12.8645L69.5143 12.536ZM64.4383 26V27H65.13L65.374 26.3528L64.4383 26ZM63.6823 20.708L62.7554 20.3327L62.1984 21.708H63.6823V20.708ZM65.4463 16.352V15.352H64.7723L64.5194 15.9767L65.4463 16.352ZM77.0023 16.352L77.9265 15.9701L77.6711 15.352H77.0023V16.352ZM78.8023 20.708V21.708H80.2975L79.7265 20.3261L78.8023 20.708ZM60.0415 26.3645L69.9055 1.1645L68.0431 0.435499L58.1791 25.6355L60.0415 26.3645ZM68.9743 1.8H73.7983V-0.200002H68.9743V1.8ZM72.8666 1.16334L82.6946 26.3633L84.5579 25.6367L74.7299 0.436653L72.8666 1.16334ZM83.6263 25H78.0823V27H83.6263V25ZM79.0189 25.6497L73.9429 12.0777L72.0696 12.7783L77.1456 26.3503L79.0189 25.6497ZM73.9426 12.0769C73.8007 11.6986 73.6224 11.2111 73.4072 10.6133L71.5254 11.2907C71.7422 11.8929 71.9238 12.3894 72.0699 12.7791L73.9426 12.0769ZM73.4187 10.6472C73.2265 10.0468 73.0224 9.41035 72.8063 8.73799L70.9022 9.35001C71.1181 10.0216 71.322 10.6572 71.5138 11.2568L73.4187 10.6472ZM72.8063 8.73799C72.5904 8.06635 72.3865 7.43077 72.1947 6.83122L70.2898 7.44077C70.482 8.04123 70.6861 8.67765 70.9022 9.35001L72.8063 8.73799ZM72.198 6.84191C72.0095 6.229 71.8725 5.73658 71.7837 5.35896L69.8368 5.81704C69.94 6.25542 70.0911 6.795 70.2865 7.43009L72.198 6.84191ZM70.8473 6.58731L71.8193 6.55131L71.7453 4.55268L70.7733 4.58868L70.8473 6.58731ZM70.8146 5.29958C70.6757 5.83229 70.5129 6.39077 70.3258 6.97522L72.2307 7.58477C72.4277 6.96922 72.6009 6.37571 72.7499 5.80442L70.8146 5.29958ZM70.3183 7C70.1518 7.5709 69.9732 8.16619 69.7825 8.78591L71.694 9.37408C71.8874 8.7458 72.0688 8.14109 72.2383 7.56L70.3183 7ZM69.7858 8.77522C69.5987 9.36002 69.4001 9.93255 69.1899 10.4929L71.0626 11.1951C71.2845 10.6034 71.4938 9.99998 71.6907 9.38478L69.7858 8.77522ZM69.1899 10.4929C68.9713 11.076 68.7645 11.6475 68.5698 12.2075L70.4588 12.8645C70.648 12.3205 70.8493 11.764 71.0626 11.1951L69.1899 10.4929ZM68.5786 12.1832L63.5026 25.6472L65.374 26.3528L70.45 12.8888L68.5786 12.1832ZM64.4383 25H59.1103V27H64.4383V25ZM64.6091 21.0833L66.3731 16.7273L64.5194 15.9767L62.7554 20.3327L64.6091 21.0833ZM65.4463 17.352H77.0023V15.352H65.4463V17.352ZM76.0781 16.7339L77.8781 21.0899L79.7265 20.3261L77.9265 15.9701L76.0781 16.7339ZM78.8023 19.708H63.6823V21.708H78.8023V19.708ZM90.6277 26H89.6277V27H90.6277V26ZM90.6277 5.66H91.6277V4.66H90.6277V5.66ZM83.2837 5.66H82.2837V6.66H83.2837V5.66ZM83.2837 0.799998V-0.200002H82.2837V0.799998H83.2837ZM103.588 0.799998H104.588V-0.200002H103.588V0.799998ZM103.588 5.66V6.66H104.588V5.66H103.588ZM96.0277 5.66V4.66H95.0277V5.66H96.0277ZM96.0277 26V27H97.0277V26H96.0277ZM91.6277 26V5.66H89.6277V26H91.6277ZM90.6277 4.66H83.2837V6.66H90.6277V4.66ZM84.2837 5.66V0.799998H82.2837V5.66H84.2837ZM83.2837 1.8H103.588V-0.200002H83.2837V1.8ZM102.588 0.799998V5.66H104.588V0.799998H102.588ZM103.588 4.66H96.0277V6.66H103.588V4.66ZM95.0277 5.66V26H97.0277V5.66H95.0277ZM96.0277 25H90.6277V27H96.0277V25ZM123.923 26H122.923V27H123.923V26ZM123.923 0.799998V-0.200002H122.923V0.799998H123.923ZM129.323 0.799998H130.323V-0.200002H129.323V0.799998ZM129.323 26V27H130.323V26H129.323ZM108.047 26H107.047V27H108.047V26ZM108.047 0.799998V-0.200002H107.047V0.799998H108.047ZM113.447 0.799998H114.447V-0.200002H113.447V0.799998ZM113.447 26V27H114.447V26H113.447ZM110.207 15.884L109.208 15.8766L109.2 16.884H110.207V15.884ZM110.243 10.988V9.988H109.251L109.244 10.9806L110.243 10.988ZM126.695 10.988H127.695V9.988H126.695V10.988ZM126.695 15.884V16.884H127.695V15.884H126.695ZM124.923 26V0.799998H122.923V26H124.923ZM123.923 1.8H129.323V-0.200002H123.923V1.8ZM128.323 0.799998V26H130.323V0.799998H128.323ZM129.323 25H123.923V27H129.323V25ZM109.047 26V0.799998H107.047V26H109.047ZM108.047 1.8H113.447V-0.200002H108.047V1.8ZM112.447 0.799998V26H114.447V0.799998H112.447ZM113.447 25H108.047V27H113.447V25ZM111.207 15.8914L111.243 10.9954L109.244 10.9806L109.208 15.8766L111.207 15.8914ZM110.243 11.988H126.695V9.988H110.243V11.988ZM125.695 10.988V15.884H127.695V10.988H125.695ZM126.695 14.884H110.207V16.884H126.695V14.884ZM135.891 26H134.891V27H135.891V26ZM135.891 0.799998V-0.200002H134.891V0.799998H135.891ZM152.919 0.799998H153.919V-0.200002H152.919V0.799998ZM152.919 5.552V6.552H153.919V5.552H152.919ZM141.147 5.552V4.552H140.147V5.552H141.147ZM141.147 21.248H140.147V22.248H141.147V21.248ZM153.171 21.248H154.171V20.248H153.171V21.248ZM153.171 26V27H154.171V26H153.171ZM138.411 15.452H137.411V16.452H138.411V15.452ZM138.411 10.844V9.844H137.411V10.844H138.411ZM151.191 10.844H152.191V9.844H151.191V10.844ZM151.191 15.452V16.452H152.191V15.452H151.191ZM136.891 26V0.799998H134.891V26H136.891ZM135.891 1.8H152.919V-0.200002H135.891V1.8ZM151.919 0.799998V5.552H153.919V0.799998H151.919ZM152.919 4.552H141.147V6.552H152.919V4.552ZM140.147 5.552V21.248H142.147V5.552H140.147ZM141.147 22.248H153.171V20.248H141.147V22.248ZM152.171 21.248V26H154.171V21.248H152.171ZM153.171 25H135.891V27H153.171V25ZM139.411 15.452V10.844H137.411V15.452H139.411ZM138.411 11.844H151.191V9.844H138.411V11.844ZM150.191 10.844V15.452H152.191V10.844H150.191ZM151.191 14.452H138.411V16.452H151.191V14.452ZM158.743 26H157.743V27H158.743V26ZM158.743 0.799998V-0.200002H157.743V0.799998H158.743ZM174.151 1.88L173.658 2.75026L173.664 2.7538L173.671 2.75726L174.151 1.88ZM177.139 4.724L176.281 5.2385L176.285 5.24474L176.289 5.25094L177.139 4.724ZM177.139 12.968L176.28 12.4559L176.277 12.461L177.139 12.968ZM174.151 15.884L174.643 16.7543L174.643 16.7543L174.151 15.884ZM163.963 16.964V15.964H162.963V16.964H163.963ZM163.963 26V27H164.963V26H163.963ZM173.035 26L172.164 26.4908L172.448 26.9966L173.029 27L173.035 26ZM166.627 14.624L166.467 13.6369L165.052 13.8665L165.756 15.1148L166.627 14.624ZM172.171 13.724L173.036 13.223L172.691 12.6265L172.011 12.7369L172.171 13.724ZM179.299 26.036L179.293 27.036L181.039 27.046L180.164 25.535L179.299 26.036ZM163.963 12.572H162.963V13.572H163.963V12.572ZM171.343 12.14L171.857 12.9976L171.869 12.9903L171.343 12.14ZM172.495 10.88L173.389 11.3272L173.393 11.3194L173.397 11.3115L172.495 10.88ZM172.423 7.172L171.562 7.68073L171.562 7.68073L172.423 7.172ZM171.055 5.948L170.593 6.83522L170.608 6.8426L170.622 6.84952L171.055 5.948ZM163.963 5.48V4.48H162.963V5.48H163.963ZM159.743 26V0.799998H157.743V26H159.743ZM158.743 1.8H169.903V-0.200002H158.743V1.8ZM169.903 1.8C171.302 1.8 172.547 2.12103 173.658 2.75026L174.643 1.00974C173.211 0.198968 171.623 -0.200002 169.903 -0.200002V1.8ZM173.671 2.75726C174.793 3.37123 175.656 4.19644 176.281 5.2385L177.996 4.2095C177.182 2.85156 176.053 1.78077 174.631 1.00274L173.671 2.75726ZM176.289 5.25094C176.926 6.27886 177.255 7.46122 177.255 8.828H179.255C179.255 7.12277 178.839 5.56914 177.989 4.19706L176.289 5.25094ZM177.255 8.828C177.255 10.1674 176.928 11.3692 176.28 12.4559L177.998 13.4801C178.838 12.0708 179.255 10.5126 179.255 8.828H177.255ZM176.277 12.461C175.649 13.529 174.782 14.3776 173.658 15.0137L174.643 16.7543C176.064 15.9504 177.189 14.855 178.001 13.475L176.277 12.461ZM173.658 15.0137C172.547 15.643 171.302 15.964 169.903 15.964V17.964C171.623 17.964 173.211 17.565 174.643 16.7543L173.658 15.0137ZM169.903 15.964H163.963V17.964H169.903V15.964ZM162.963 16.964V26H164.963V16.964H162.963ZM163.963 25H158.743V27H163.963V25ZM173.906 25.5092L167.498 14.1332L165.756 15.1148L172.164 26.4908L173.906 25.5092ZM166.787 15.6111L172.331 14.7111L172.011 12.7369L166.467 13.6369L166.787 15.6111ZM171.305 14.225L178.433 26.537L180.164 25.535L173.036 13.223L171.305 14.225ZM179.305 25.036L173.041 25L173.029 27L179.293 27.036L179.305 25.036ZM163.963 13.572H169.651V11.572H163.963V13.572ZM169.651 13.572C170.451 13.572 171.199 13.3926 171.857 12.9975L170.828 11.2825C170.527 11.4634 170.147 11.572 169.651 11.572V13.572ZM171.869 12.9903C172.53 12.5811 173.042 12.0218 173.389 11.3272L171.6 10.4328C171.42 10.7942 171.163 11.0749 170.816 11.2897L171.869 12.9903ZM173.397 11.3115C173.731 10.612 173.891 9.85046 173.891 9.044H171.891C171.891 9.58154 171.786 10.044 171.593 10.4485L173.397 11.3115ZM173.891 9.044C173.891 8.17648 173.702 7.37033 173.284 6.66327L171.562 7.68073C171.768 8.02966 171.891 8.47152 171.891 9.044H173.891ZM173.284 6.66327C172.862 5.95027 172.25 5.41251 171.488 5.04648L170.622 6.84952C171.06 7.05949 171.359 7.33773 171.562 7.68073L173.284 6.66327ZM171.516 5.06078C170.751 4.66297 169.892 4.48 168.967 4.48V6.48C169.626 6.48 170.158 6.60903 170.593 6.83522L171.516 5.06078ZM168.967 4.48H163.963V6.48H168.967V4.48ZM162.963 5.48V12.572H164.963V5.48H162.963ZM192.001 26L191.07 25.6355L190.536 27H192.001V26ZM201.865 0.799998V-0.200002H201.182L200.934 0.435499L201.865 0.799998ZM206.689 0.799998L207.621 0.436653L207.372 -0.200002H206.689V0.799998ZM216.517 26V27H217.98L217.449 25.6367L216.517 26ZM210.973 26L210.036 26.3503L210.279 27H210.973V26ZM205.897 12.428L206.834 12.0777L206.833 12.0769L205.897 12.428ZM205.357 10.952L204.404 11.2568L204.41 11.2739L204.416 11.2907L205.357 10.952ZM204.133 7.136L203.177 7.4301L203.18 7.44077L204.133 7.136ZM203.701 5.588L203.664 4.58868L202.449 4.63368L202.727 5.81704L203.701 5.588ZM204.673 5.552L205.641 5.80442L205.98 4.5029L204.636 4.55268L204.673 5.552ZM204.169 7.28L203.216 6.97522L203.213 6.98756L203.209 7L204.169 7.28ZM203.629 9.08L204.581 9.38479L204.585 9.37408L203.629 9.08ZM203.017 10.844L202.081 10.4929L202.081 10.4929L203.017 10.844ZM202.405 12.536L203.341 12.8888L203.345 12.8767L203.349 12.8645L202.405 12.536ZM197.329 26V27H198.021L198.265 26.3528L197.329 26ZM196.573 20.708L195.646 20.3327L195.089 21.708H196.573V20.708ZM198.337 16.352V15.352H197.663L197.41 15.9767L198.337 16.352ZM209.893 16.352L210.817 15.9701L210.562 15.352H209.893V16.352ZM211.693 20.708V21.708H213.188L212.617 20.3261L211.693 20.708ZM192.932 26.3645L202.796 1.1645L200.934 0.435499L191.07 25.6355L192.932 26.3645ZM201.865 1.8H206.689V-0.200002H201.865V1.8ZM205.757 1.16334L215.585 26.3633L217.449 25.6367L207.621 0.436653L205.757 1.16334ZM216.517 25H210.973V27H216.517V25ZM211.91 25.6497L206.834 12.0777L204.96 12.7783L210.036 26.3503L211.91 25.6497ZM206.833 12.0769C206.691 11.6986 206.513 11.2111 206.298 10.6133L204.416 11.2907C204.633 11.8929 204.814 12.3894 204.961 12.7791L206.833 12.0769ZM206.309 10.6472C206.117 10.0468 205.913 9.41035 205.697 8.73799L203.793 9.35001C204.009 10.0216 204.213 10.6572 204.404 11.2568L206.309 10.6472ZM205.697 8.73799C205.481 8.06635 205.277 7.43077 205.085 6.83122L203.18 7.44077C203.373 8.04123 203.577 8.67765 203.793 9.35001L205.697 8.73799ZM205.089 6.84191C204.9 6.229 204.763 5.73658 204.674 5.35896L202.727 5.81704C202.831 6.25542 202.982 6.795 203.177 7.43009L205.089 6.84191ZM203.738 6.58731L204.71 6.55131L204.636 4.55268L203.664 4.58868L203.738 6.58731ZM203.705 5.29958C203.566 5.83229 203.403 6.39077 203.216 6.97522L205.121 7.58477C205.318 6.96922 205.491 6.37571 205.641 5.80442L203.705 5.29958ZM203.209 7C203.042 7.5709 202.864 8.16619 202.673 8.78591L204.585 9.37408C204.778 8.7458 204.959 8.14109 205.129 7.56L203.209 7ZM202.676 8.77522C202.489 9.36002 202.291 9.93255 202.081 10.4929L203.953 11.1951C204.175 10.6034 204.384 9.99998 204.581 9.38478L202.676 8.77522ZM202.081 10.4929C201.862 11.076 201.655 11.6475 201.46 12.2075L203.349 12.8645C203.539 12.3205 203.74 11.764 203.953 11.1951L202.081 10.4929ZM201.469 12.1832L196.393 25.6472L198.265 26.3528L203.341 12.8888L201.469 12.1832ZM197.329 25H192.001V27H197.329V25ZM197.5 21.0833L199.264 16.7273L197.41 15.9767L195.646 20.3327L197.5 21.0833ZM198.337 17.352H209.893V15.352H198.337V17.352ZM208.969 16.7339L210.769 21.0899L212.617 20.3261L210.817 15.9701L208.969 16.7339ZM211.693 19.708H196.573V21.708H211.693V19.708ZM220.055 26H219.055V27H220.055V26ZM220.055 0.799998V-0.200002H219.055V0.799998H220.055ZM234.779 1.88L234.265 2.73749L234.275 2.74351L234.285 2.74929L234.779 1.88ZM237.659 4.76L236.79 5.2543L236.794 5.26069L236.797 5.26702L237.659 4.76ZM237.659 13.112L236.793 12.6123L236.789 12.6186L236.786 12.6249L237.659 13.112ZM234.779 16.1L235.294 16.9575L235.299 16.9545L234.779 16.1ZM225.455 17.18V16.18H224.455V17.18H225.455ZM225.455 26V27H226.455V26H225.455ZM225.383 12.32H224.383V13.32H225.383V12.32ZM231.683 11.888L232.217 12.7335L232.233 12.7237L232.248 12.7133L231.683 11.888ZM232.763 10.664L231.895 10.1679L231.886 10.1838L231.877 10.2L232.763 10.664ZM232.763 7.244L231.877 7.70801L231.891 7.73366L231.906 7.75849L232.763 7.244ZM231.683 6.092L231.149 6.93749L231.166 6.94777L231.182 6.95743L231.683 6.092ZM225.383 5.66V4.66H224.383V5.66H225.383ZM221.055 26V0.799998H219.055V26H221.055ZM220.055 1.8H230.747V-0.200002H220.055V1.8ZM230.747 1.8C232.066 1.8 233.23 2.1167 234.265 2.73749L235.294 1.02251C233.928 0.203302 232.405 -0.200002 230.747 -0.200002V1.8ZM234.285 2.74929C235.353 3.35632 236.183 4.18677 236.79 5.2543L238.529 4.2657C237.744 2.88523 236.654 1.79568 235.274 1.01071L234.285 2.74929ZM236.797 5.26702C237.42 6.32487 237.739 7.52724 237.739 8.9H239.739C239.739 7.20075 239.339 5.64313 238.521 4.25298L236.797 5.26702ZM237.739 8.9C237.739 10.2995 237.418 11.5287 236.793 12.6123L238.525 13.6117C239.34 12.1993 239.739 10.6205 239.739 8.9H237.739ZM236.786 12.6249C236.174 13.7215 235.336 14.5911 234.26 15.2455L235.299 16.9545C236.67 16.1209 237.752 14.9985 238.533 13.5991L236.786 12.6249ZM234.265 15.2425C233.23 15.8633 232.066 16.18 230.747 16.18V18.18C232.405 18.18 233.928 17.7767 235.294 16.9575L234.265 15.2425ZM230.747 16.18H225.455V18.18H230.747V16.18ZM224.455 17.18V26H226.455V17.18H224.455ZM225.455 25H220.055V27H225.455V25ZM225.383 13.32H230.135V11.32H225.383V13.32ZM230.135 13.32C230.887 13.32 231.59 13.1294 232.217 12.7335L231.149 11.0425C230.864 11.2226 230.536 11.32 230.135 11.32V13.32ZM232.248 12.7133C232.843 12.3061 233.312 11.7724 233.649 11.128L231.877 10.2C231.687 10.5636 231.436 10.8459 231.119 11.0627L232.248 12.7133ZM233.632 11.1601C234.016 10.488 234.195 9.73734 234.195 8.936H232.195C232.195 9.43066 232.087 9.83196 231.895 10.1679L233.632 11.1601ZM234.195 8.936C234.195 8.13577 234.016 7.38804 233.621 6.7295L231.906 7.75849C232.087 8.05996 232.195 8.44023 232.195 8.936H234.195ZM233.649 6.77999C233.305 6.12241 232.817 5.59288 232.184 5.22657L231.182 6.95743C231.462 7.11911 231.694 7.35758 231.877 7.70801L233.649 6.77999ZM232.217 5.24651C231.59 4.85064 230.887 4.66 230.135 4.66V6.66C230.536 6.66 230.864 6.75736 231.149 6.93749L232.217 5.24651ZM230.135 4.66H225.383V6.66H230.135V4.66ZM224.383 5.66V12.32H226.383V5.66H224.383ZM243.575 26H242.575V27H243.575V26ZM243.575 0.799998V-0.200002H242.575V0.799998H243.575ZM258.299 1.88L257.784 2.73749L257.794 2.74351L257.805 2.74929L258.299 1.88ZM261.179 4.76L260.31 5.2543L260.313 5.26069L260.317 5.26702L261.179 4.76ZM261.179 13.112L260.313 12.6123L260.309 12.6186L260.305 12.6249L261.179 13.112ZM258.299 16.1L258.813 16.9575L258.818 16.9545L258.299 16.1ZM248.975 17.18V16.18H247.975V17.18H248.975ZM248.975 26V27H249.975V26H248.975ZM248.903 12.32H247.903V13.32H248.903V12.32ZM255.203 11.888L255.737 12.7335L255.752 12.7237L255.768 12.7133L255.203 11.888ZM256.283 10.664L255.415 10.1679L255.405 10.1838L255.397 10.2L256.283 10.664ZM256.283 7.244L255.397 7.70801L255.41 7.73366L255.425 7.75849L256.283 7.244ZM255.203 6.092L254.669 6.93749L254.685 6.94777L254.702 6.95743L255.203 6.092ZM248.903 5.66V4.66H247.903V5.66H248.903ZM244.575 26V0.799998H242.575V26H244.575ZM243.575 1.8H254.267V-0.200002H243.575V1.8ZM254.267 1.8C255.586 1.8 256.75 2.1167 257.784 2.73749L258.813 1.02251C257.448 0.203302 255.924 -0.200002 254.267 -0.200002V1.8ZM257.805 2.74929C258.872 3.35632 259.703 4.18677 260.31 5.2543L262.048 4.2657C261.263 2.88523 260.174 1.79568 258.793 1.01071L257.805 2.74929ZM260.317 5.26702C260.939 6.32487 261.259 7.52724 261.259 8.9H263.259C263.259 7.20075 262.858 5.64313 262.041 4.25298L260.317 5.26702ZM261.259 8.9C261.259 10.2995 260.938 11.5287 260.313 12.6123L262.045 13.6117C262.86 12.1993 263.259 10.6205 263.259 8.9H261.259ZM260.305 12.6249C259.694 13.7215 258.856 14.5911 257.779 15.2455L258.818 16.9545C260.19 16.1209 261.272 14.9985 262.052 13.5991L260.305 12.6249ZM257.784 15.2425C256.75 15.8633 255.586 16.18 254.267 16.18V18.18C255.924 18.18 257.448 17.7767 258.813 16.9575L257.784 15.2425ZM254.267 16.18H248.975V18.18H254.267V16.18ZM247.975 17.18V26H249.975V17.18H247.975ZM248.975 25H243.575V27H248.975V25ZM248.903 13.32H253.655V11.32H248.903V13.32ZM253.655 13.32C254.406 13.32 255.11 13.1294 255.737 12.7335L254.669 11.0425C254.384 11.2226 254.055 11.32 253.655 11.32V13.32ZM255.768 12.7133C256.363 12.3061 256.831 11.7724 257.169 11.128L255.397 10.2C255.207 10.5636 254.955 10.8459 254.638 11.0627L255.768 12.7133ZM257.151 11.1601C257.535 10.488 257.715 9.73734 257.715 8.936H255.715C255.715 9.43066 255.607 9.83196 255.415 10.1679L257.151 11.1601ZM257.715 8.936C257.715 8.13577 257.535 7.38804 257.14 6.7295L255.425 7.75849C255.606 8.05996 255.715 8.44023 255.715 8.936H257.715ZM257.169 6.77999C256.824 6.12241 256.337 5.59288 255.704 5.22657L254.702 6.95743C254.981 7.11911 255.213 7.35758 255.397 7.70801L257.169 6.77999ZM255.737 5.24651C255.11 4.85064 254.406 4.66 253.655 4.66V6.66C254.055 6.66 254.384 6.75736 254.669 6.93749L255.737 5.24651ZM253.655 4.66H248.903V6.66H253.655V4.66ZM247.903 5.66V12.32H249.903V5.66H247.903Z" fill="#FF0080"/>
</svg>
