<svg version="1.1" id="Uploaded to svgrepo.com" xmlns="http://www.w3.org/2000/svg" xmlns:xlink="http://www.w3.org/1999/xlink" x="0px" y="0px"
	 width="32px" height="32px" viewBox="0 0 32 32" style="enable-background:new 0 0 32 32;" xml:space="preserve">
<style type="text/css">
	.isometric_tien{fill:#7BD6C4;}
	.isometric_elf{fill:#72C0AB;}
	.isometric_twaalf{fill:#569080;}
	.st0{fill:#225B49;}
	.st1{fill:#F28103;}
	.st2{fill:#BE1E2D;}
	.st3{fill:#F05A28;}
	.st4{fill:#F29227;}
	.st5{fill:#FF7344;}
	.st6{fill:#F8F7C5;}
	.st7{fill:#F5DF89;}
	.st8{fill:#AD9A74;}
	.st9{fill:none;}
	.st10{fill:#F2D76C;}
	.st11{fill:#72C0AB;}
	.st12{fill:#7BD6C4;}
	.st13{fill:#569080;}
</style>
<g>
	<path class="isometric_twaalf" d="M17,23.901c-0.033,1.035-0.955,1.846-2.059,1.811c-0.713-0.023-1.268-0.393-1.605-0.931
		c0.959,0.932,2.884,0.212,2.929-1.222c0.03-0.936-1.165-2.845-1.165-2.845S17.032,22.866,17,23.901z M10.099,15.073
		c0,0,1.195,1.91,1.165,2.845c-0.045,1.435-1.928,2.154-2.932,1.222c0.337,0.537,0.895,0.908,1.608,0.931
		c1.104,0.035,2.026-0.776,2.059-1.811C12.033,17.225,10.099,15.073,10.099,15.073z"/>
	<path class="isometric_elf" d="M13.001,23.774c0.033-1.035,2.098-3.061,2.098-3.061s1.195,1.91,1.165,2.845
		C16.202,25.536,12.934,25.878,13.001,23.774z M11.265,17.919c0.03-0.936-1.165-2.845-1.165-2.845s-2.066,2.025-2.098,3.061
		C7.934,20.238,11.202,19.896,11.265,17.919z M23.471,16.72c1.664-0.933,1.693-2.967,1.47-4.658
		c-0.249-1.897-1.874-3.371-3.795-3.388c-0.003-0.803-0.181-1.563-0.492-2.25c-3.425,2.44-4.561,7.111-3.035,10.931
		C19.644,17.762,21.857,17.625,23.471,16.72z"/>
	<path class="isometric_tien" d="M20.654,6.424c-0.865-1.909-2.781-3.24-5.012-3.24c-0.875,0-2.749,0.638-3.517,1.278
		C9.491,3.619,7,5.615,7,8.193c0,2.031-0.336,3.315,2.135,4.786c6.009,3.578,6.325,3.94,8.484,4.375
		C16.092,13.535,17.228,8.863,20.654,6.424z"/>
</g>
</svg>