<?xml version="1.0" standalone="yes"?>
<svg xmlns="http://www.w3.org/2000/svg" width="512" height="512">
<path style="fill:#d8e8fd; stroke:none;" d="M374 185C383.6 164.473 387.272 136.144 382 114L443 114C456.202 114 472.557 116.61 485 111.525C501.942 104.601 507.91 80.3658 496.61 66.0008C492.396 60.6446 486.682 56.7536 480 55.2894C475.985 54.4095 468.655 55.2677 465.563 52.3966C462.21 49.2831 461.442 42.1115 459.511 38C455.845 30.1974 450.408 22.9215 443.999 17.1736C414.283 -9.47845 356.594 -6.07617 338 33C279.592 -20.6373 182.465 -6.92133 137.721 57C127.57 71.5027 120.841 87.8063 116.887 105C115.368 111.605 116.588 125.476 112.258 130.566C109.284 134.062 103.065 133 99 133C88.1977 133 76.7028 131.895 66 133.428C26.362 139.107 -0.81732 178.999 12.865 218C26.1704 255.926 60.0287 261 95 261L340 261L407 261C419.369 261 432.576 262.39 444 256.623C469.676 243.661 471.064 204.632 446 190.338C426.636 179.295 395.62 185 374 185z"/>
<!-- <path style="fill:#010101; stroke:none;" d="M265 0L265 1C293.184 1.58182 315.655 18.2343 338 33C348.975 16.9286 365.159 3.67398 385 1L349 0L265 0z"/> -->
<path style="fill:#df656f; stroke:none;" d="M63.1088 299.743C57.0759 302.302 58.8347 310.076 62.1481 314C71.1519 324.662 82.1075 334.154 92 343.999C133.533 385.332 178.528 425.058 217.285 469C228.106 481.268 240.422 492.446 252 504C256.216 508.207 262.154 514.864 268.772 510.821C274.525 507.306 271.258 499.79 267.891 496C257.453 484.249 245.654 472.715 234 462.17C190.009 422.365 149.819 378.022 107.999 336C98.0256 325.978 88.0678 315.931 78 306.004C74.1152 302.173 69.1125 297.197 63.1088 299.743z"/>
<path style="fill:#d8e8fd; stroke:none;" d="M231.059 302.028C225.436 305.107 225.746 314.469 232.044 316.486C241.691 319.576 255.886 317 266 317L413 317L454 317C458.757 317 465.86 318.275 469.566 314.566C474.266 309.864 471.093 302.355 464.996 301.228C452.176 298.859 437.043 301 424 301L285 301L247 301C242.331 301 235.283 299.714 231.059 302.028M154 335L154 336L164 336L154 335z"/>
<path style="fill:#71c1ea; stroke:none;" d="M119 347C123.65 356.971 135.268 365.268 143 373L194 424C202.843 432.843 212.615 446.691 224 452C248.144 416.182 244.438 360.879 201 340.185C188.433 334.198 171.464 335.66 158 335.985C143.21 336.343 131.387 338.65 119 347z"/>
<path style="fill:#d8e8fd; stroke:none;" d="M167 335L167 336L177 336L167 335M145 336L145 337L148 337L145 336M184.667 336.333L185.333 336.667L184.667 336.333M138 337L138 338L141 338L138 337M190 337L190 338L193 338L190 337M133 338L133 339L136 339L133 338M196.667 338.333L197.333 338.667L196.667 338.333M115 344L118 348L119 348L131 340L115 344M200 339L200 340C239.931 364.527 252.199 414.007 223 452L223 453C225.45 455.421 228.305 459.12 232 459.468C236.631 459.904 242.301 455.102 246 452.772C258.882 444.657 270.038 434.574 279.866 423C283.548 418.664 289.459 412.781 290.537 407C292.048 398.9 280.155 388.524 275.421 383C256.715 361.176 228.117 344.819 200 339M297.043 349.653C290.458 351.844 289.026 361.636 296.044 364.397C306.271 368.419 324.013 365 335 365L427 365L456 365C459.919 365 465.456 365.957 468.772 363.397C473.471 359.767 472.09 352.346 466.895 350.009C459.241 346.567 446.293 349 438 349L341 349C328.034 349 309.356 345.556 297.043 349.653M131 472L131 471C89.7581 448.039 79.4879 396.099 108 359C99.6278 347.157 91.8215 353.782 82 360.333C67.8087 369.799 46.2728 385.981 40.7431 403C38.0331 411.341 50.396 422.425 55.2863 428C74.4712 449.87 102.517 466.105 131 472z"/>
<path style="fill:#71c1ea; stroke:none;" d="M107 359C83.2342 394.258 85.7583 451.28 130 470.929C143.545 476.945 162.577 476.523 177.004 475.166C190.75 473.873 200.415 471.815 212 464C206.749 452.74 193.113 443.076 184 434.83C168.072 420.418 152.886 404.526 138.039 389C128.868 379.409 119.186 364.683 107 359z"/>
<path style="fill:#d8e8fd; stroke:none;" d="M336.004 397.533C328.552 399.37 326.083 409.862 334.044 413.106C342.441 416.528 356.011 414 365 414L436 414C444.317 414 461.758 417.282 468.606 411.991C473.433 408.261 472.188 401.023 466.956 398.434C461.551 395.759 453.845 397 448 397L373 397C361.448 397 347.238 394.764 336.004 397.533M212 463L202 470L202 471L216 467L212 463M200.667 471.333L201.333 471.667L200.667 471.333M133 472L133 473L136 473L133 472M197 472L198 473L197 472M138.667 473.333L139.333 473.667L138.667 473.333M191.667 473.333L192.333 473.667L191.667 473.333M144 474L144 475L147 475L144 474M184 474L184 475L187 475L184 474M153 475L153 476L157 476L153 475M158 475L158 476L161 476L158 475M170 475L171 476L170 475M174 475L174 476L178 476L174 475z"/>
<path style="fill:#ff0101; stroke:none;" d="M271 500L272 501L271 500z"/>
</svg>
