<?xml version="1.0" standalone="yes"?>
<svg xmlns="http://www.w3.org/2000/svg" width="512" height="512">
<!-- <path style="fill:#010101; stroke:none;" d="M0 0L0 512L167 512L167 511C150.534 510.66 133.579 504.536 119 497.247C56.4569 465.975 24.8106 392.99 43.152 326C54.2689 285.397 86.7877 250.593 110.86 217C127.339 194.002 143.872 171.04 160.291 148C166.573 139.184 173.223 125.73 186 127.189C196.974 128.442 203.088 140.946 208.86 149C224.804 171.251 243.457 193.226 257 217C263.787 211.391 268.026 202.51 274.09 196C288.15 180.905 306.925 168.823 327 163.63C345.284 158.9 363.442 157.808 382 161.601C397.674 164.805 411.859 171.307 425 180.347C437.126 188.689 447.61 199.703 455.656 212C463.555 224.073 468.535 237.012 471.87 251C491.692 334.139 409.169 407.741 329 387C324.197 447.352 263.66 509.727 202 511L202 512L512 512L512 0L300 0C313.776 22.3198 341.921 45.8769 344.826 73C350.268 123.793 281.752 148.237 254.826 104C251.53 98.5849 248.856 92.3546 248.174 86C244.532 52.1057 276.523 26.4585 293 0L0 0z"/> -->
<path style="fill:#d5e8fd; stroke:none;" d="M293 0L290 4L293 0z"/>
<path style="fill:#bbdbfd; stroke:none;" d="M270 121C275.506 121.81 280.474 125.152 286 126.331C295.675 128.394 305.663 126.63 315 124L315 122C292.64 109.536 282.027 82.6664 292.901 59C296.886 50.327 303.612 42.7158 309.14 35C311.277 32.0186 315.411 27.9268 315.267 24C315.091 19.193 309.354 13.7601 306.72 10C304.722 7.14767 302.874 3.58533 299.907 1.60803C295.328 -1.44336 291.668 2.47632 289.015 6.00464C282.109 15.1873 275.544 24.655 268.86 34C253.819 55.0258 239.715 77.3504 254.338 103C258.421 110.162 264.949 114.736 270 121z"/>
<path style="fill:#d5e8fd; stroke:none;" d="M299 0L300 1L299 0M300 1L301 2L300 1M301 2L302 3L301 2M302 3L303 4L302 3M289 5L290 6L289 5M303 5L304 6L303 5M288 6L289 7L288 6M304 6L305 7L304 6M287.333 7.66666L287.667 8.33334L287.333 7.66666M305 8L306 9L305 8M286 9L287 10L286 9M306 9L307 10L306 9M285 10L286 11L285 10M307.333 10.6667L307.667 11.3333L307.333 10.6667M284 12L285 13L284 12M308 12L309 13L308 12M283 13L284 14L283 13M309 13L310 14L309 13M282.333 14.6667L282.667 15.3333L282.333 14.6667M310 15L311 16L310 15M281 16L282 17L281 16M311 16L312 17L311 16M280 17L281 18L280 17M312.333 17.6667L312.667 18.3333L312.333 17.6667M279 19L280 20L279 19M313 19L314 20L313 19M278 20L279 21L278 20M314 20L315 21L314 20M277 21L278 22L277 21M315 22L316 23L315 22M276 23L277 24L276 23M316 23C311.072 34.7147 300.818 43.9987 294.465 55C285.475 70.5668 286.418 91.0907 296.363 106C301.431 113.598 309.052 117.51 315 124C321.725 122.059 327.146 118.076 331.91 112.996C357.674 85.5237 340.736 44.9713 316 23M275 24L276 25L275 24M274 26L275 27L274 26M273 27L274 28L273 27M272 28L273 29L272 28M271 30L272 31L271 30M270 31L271 32L270 31M269.333 32.6667L269.667 33.3333L269.333 32.6667M268 34L269 35L268 34M267 35L268 36L267 35M266 37L267 38L266 37M265 38L266 39L265 38M264.333 39.6667L264.667 40.3333L264.333 39.6667M263 41L264 42L263 41M262.333 42.6667L262.667 43.3333L262.333 42.6667M261 44L262 45L261 44M260 45L261 46L260 45M259.333 46.6667L259.667 47.3333L259.333 46.6667M258 48L259 49L258 48M257.333 49.6667L257.667 50.3333L257.333 49.6667M256 51L257 52L256 51M255 52L256 53L255 52M254 54L255 55L254 54M253.333 55.6667L253.667 56.3333L253.333 55.6667M252.333 57.6667L252.667 58.3333L252.333 57.6667M251 60L252 61L251 60M250.333 62.6667L250.667 63.3333L250.333 62.6667M249 65L249 68L250 68L249 65M248 69L248 73L249 73L248 69M248 85L248 89L249 89L248 85M249 90L249 93L250 93L249 90M250.333 94.6667L250.667 95.3333L250.333 94.6667M251 97L252 98L251 97M252.333 99.6667L252.667 100.333L252.333 99.6667M253 101L254 102L253 101M254 103L255 104L254 103M255 105L256 106L255 105M256 106L257 107L256 106M257.333 107.667L257.667 108.333L257.333 107.667M258 109L259 110L258 109M259 110L260 111L259 110M260 111L261 112L260 111M261 112L262 113L261 112M262 113L263 114L262 113M263 114L264 115L263 114M264 115L265 116L264 115M265 116L266 117L265 116M266 117L267 118L266 117M267.667 118.333L268.333 118.667L267.667 118.333M269 119L270 120L269 119M271 120L272 121L271 120M272 121L273 122L272 121M274 122L275 123L274 122M276.667 123.333L277.333 123.667L276.667 123.333M278.667 124.333L279.333 124.667L278.667 124.333M313.667 124.333L314.333 124.667L313.667 124.333M281.667 125.333L282.333 125.667L281.667 125.333M309 125L309 126L312 126L309 125M285.667 126.333L286.333 126.667L285.667 126.333M305 126L305 127L308 127L305 126M179 127L179 128L182 128L179 127z"/>
<path style="fill:#bbdbfd; stroke:none;" d="M43 327L44 327L46 318C58.5162 324.258 69.589 328.098 83 320.833C86.8915 318.725 91.5157 310.667 96 310.667C100.68 310.667 106.52 319.718 111 321.833C115.137 323.787 130.639 324.201 131 327C135.547 317.615 137.669 307.308 142.862 298C157.966 270.926 178.407 246.198 196.421 221L218.579 190C221.102 186.47 226.415 181.465 226.843 177C227.377 171.421 219.002 163.238 215.884 159C207.087 147.044 192.905 116.945 174.04 130.652C168.892 134.393 165.546 140.929 161.849 146C153.401 157.585 145.185 169.329 136.859 181C116.147 210.034 95.3134 238.987 74.5725 268C62.383 285.051 46.1605 305.616 43 327z"/>
<path style="fill:#d5e8fd; stroke:none;" d="M187.667 127.333L188.333 127.667L187.667 127.333M291 127L291 128L302 128L291 127M176.667 128.333L177.333 128.667L176.667 128.333M190.667 128.333L191.333 128.667L190.667 128.333M175 129L176 130L175 129M192.667 129.333L193.333 129.667L192.667 129.333M173 130L174 131L173 130M194 130L195 131L194 130M172 131L173 132L172 131M195 131L196 132L195 131M171 132L172 133L171 132M196 132L197 133L196 132M170 133L171 134L170 133M197 133L198 134L197 133M198 134L199 135L198 134M169 135L170 136L169 135M199.333 135.667L199.667 136.333L199.333 135.667M168 136L169 137L168 136M167.333 137.667L167.667 138.333L167.333 137.667M200 137L201 138L200 137M201 138L202 139L201 138M166 139L167 140L166 139M165 140L166 141L165 140M202 140L203 141L202 140M203 141L204 142L203 141M164 142L165 143L164 142M204 142L205 143L204 142M163 143L164 144L163 143M162.333 144.667L162.667 145.333L162.333 144.667M205 144L206 145L205 144M206 145L207 146L206 145M161 146L162 147L161 146M160 147L161 148L160 147M207 147L208 148L207 147M208 148L209 149L208 148M159 149L160 150L159 149M209.333 149.667L209.667 150.333L209.333 149.667M158 150L159 151L158 150M157 151L158 152L157 151M210 151L211 152L210 151M211 152L212 153L211 152M156 153L157 154L156 153M155 154L156 155L155 154M212 154L213 155L212 154M213 155L214 156L213 155M154 156L155 157L154 156M214.333 156.667L214.667 157.333L214.333 156.667M153 157L154 158L153 157M152 158L153 159L152 158M215 158L216 159L215 158M216 159L217 160L216 159z"/>
<path style="fill:#97c3fb; stroke:none;" d="M350 159.424C327.778 162.351 307.199 168.143 289 181.898C276.395 191.425 264.613 203.648 257.64 218C248.106 237.623 241.576 258.902 243.09 281C247.744 348.965 308.511 398.809 376 389.718C391.354 387.649 405.688 382.069 419 374.269C505.557 323.555 484.381 187.08 388 162.873C375.92 159.839 362.44 157.786 350 159.424z"/>
<path style="fill:#d5e8fd; stroke:none;" d="M151 160L152 161L151 160z"/>
<path style="fill:#bbdbfd; stroke:none;" d="M376 160L377 161L376 160z"/>
<path style="fill:#d5e8fd; stroke:none;" d="M150 161L151 162L150 161M217 161L218 162L217 161M218 162L219 163L218 162z"/>
<path style="fill:#bbdbfd; stroke:none;" d="M386 162L387 163L386 162z"/>
<path style="fill:#d5e8fd; stroke:none;" d="M149 163L150 164L149 163M219 163L220 164L219 163M148 164L149 165L148 164M147 165L148 166L147 165M220 165L221 166L220 165z"/>
<path style="fill:#01ffff; stroke:none;" d="M320 165L321 166L320 165z"/>
<path style="fill:#bbdbfd; stroke:none;" d="M396 165L397 166L396 165z"/>
<path style="fill:#d5e8fd; stroke:none;" d="M221 166L222 167L221 166M399 166L400 167L399 166M146 167L147 168L146 167M145 168L146 169L145 168M222 168L223 169L222 168M404 168L405 169L404 168M144.333 169.667L144.667 170.333L144.333 169.667M223 169L224 170L223 169z"/>
<path style="fill:#bbdbfd; stroke:none;" d="M310 169L311 170L310 169z"/>
<path style="fill:#d5e8fd; stroke:none;" d="M224.333 170.667L224.667 171.333L224.333 170.667M143 171L144 172L143 171M142 172L143 173L142 172M225 172L226 173L225 172M226 173L227 174L226 173M141 174L142 175L141 174M416 174L417 175L416 174M140 175L141 176L140 175M227 175L228 176L227 175M139.333 176.667L139.667 177.333L139.333 176.667M228 176L172.86 253C160.249 270.598 146.002 287.951 137.427 308C120.27 348.12 123.421 394.435 142.753 433C149.984 447.424 159.516 459.948 171.09 471.17C185.827 485.46 207.125 501.378 228 505.066C237.909 506.816 253.952 495.705 262 490.74C289.474 473.791 310.587 447.267 321.681 417C324.394 409.595 329.981 397.247 328.512 389.228C327.82 385.453 320.995 384.584 318 383.399C308.045 379.462 298.571 374.58 290 368.102C267.652 351.21 251.098 326.631 245.45 299C241.784 281.066 242.164 262.685 247.011 245C249.18 237.083 257.387 225.836 257.188 218C257.077 213.669 252.67 209.338 250.291 206C243.341 196.248 236.839 184.079 228 176M138 178L139 179L138 178M137.333 179.667L137.667 180.333L137.333 179.667M136 181L137 182L136 181M135 182L136 183L135 182M134.333 183.667L134.667 184.333L134.333 183.667M133 185L134 186L133 185M132.333 186.667L132.667 187.333L132.333 186.667z"/>
<path style="fill:#bbdbfd; stroke:none;" d="M282 187L283 188L282 187z"/>
<path style="fill:#d5e8fd; stroke:none;" d="M131 188L132 189L131 188M130 189L131 190L130 189M129.333 190.667L129.667 191.333L129.333 190.667M128 192L129 193L128 192M127 193L128 194L127 193M126 195L127 196L126 195M125 196L126 197L125 196M124.333 197.667L124.667 198.333L124.333 197.667M123 199L124 200L123 199M122 200L123 201L122 200z"/>
<path style="fill:#bbdbfd; stroke:none;" d="M447 200L448 201L447 200z"/>
<path style="fill:#d5e8fd; stroke:none;" d="M121 202L122 203L121 202M120 203L121 204L120 203M119.333 204.667L119.667 205.333L119.333 204.667z"/>
<path style="fill:#bbdbfd; stroke:none;" d="M266 204L267 205L266 204z"/>
<path style="fill:#d5e8fd; stroke:none;" d="M451 205L452 206L451 205M118 206L119 207L118 206M117 207L118 208L117 207M116 209L117 210L116 209M115 210L116 211L115 210M114.333 211.667L114.667 212.333L114.333 211.667z"/>
<path style="fill:#bbdbfd; stroke:none;" d="M382 211L382 212L385 212L382 211M379 212L377 215L379 212z"/>
<path style="fill:#d5e8fd; stroke:none;" d="M380.055 213.029C372.822 216.878 368.315 232.876 364.753 240C352.653 264.2 341.319 288.793 329.247 313C326.623 318.261 316.078 339.855 331.957 335.562C339.903 333.413 345.972 314.002 349 307C361.138 278.925 380.572 252.104 389.891 223C391.858 216.859 386.997 209.333 380.055 213.029M113 213L114 214L113 213z"/>
<path style="fill:#bbdbfd; stroke:none;" d="M388 213L389 214L388 213z"/>
<path style="fill:#d5e8fd; stroke:none;" d="M112 214L113 215L112 214z"/>
<path style="fill:#bbdbfd; stroke:none;" d="M389 214L390 215L389 214z"/>
<path style="fill:#d5e8fd; stroke:none;" d="M111 216L112 217L111 216z"/>
<path style="fill:#bbdbfd; stroke:none;" d="M390 216L391 217L390 216z"/>
<path style="fill:#d5e8fd; stroke:none;" d="M110 217L111 218L110 217M109.333 218.667L109.667 219.333L109.333 218.667z"/>
<path style="fill:#bbdbfd; stroke:none;" d="M375 218L376 219L375 218z"/>
<path style="fill:#d5e8fd; stroke:none;" d="M460 219L461 220L460 219M108 220L109 221L108 220z"/>
<path style="fill:#bbdbfd; stroke:none;" d="M374 220L375 221L374 220z"/>
<path style="fill:#d5e8fd; stroke:none;" d="M107 221L108 222L107 221z"/>
<path style="fill:#bbdbfd; stroke:none;" d="M315.667 221.333L316.333 221.667L315.667 221.333z"/>
<path style="fill:#d5e8fd; stroke:none;" d="M317 221.468C283.624 227.751 293.461 278.871 327 272.532C359.416 266.406 349.385 215.37 317 221.468z"/>
<path style="fill:#bbdbfd; stroke:none;" d="M326.667 221.333L327.333 221.667L326.667 221.333M390 221L391 222L390 221M461 221L462 222L461 221M312 222L313 223L312 222M330 222L331 223L330 222M373 222L374 223L373 222z"/>
<path style="fill:#d5e8fd; stroke:none;" d="M106 223L107 224L106 223z"/>
<path style="fill:#bbdbfd; stroke:none;" d="M310 223L311 224L310 223M332 223L333 224L332 223M462 223L463 224L462 223z"/>
<path style="fill:#d5e8fd; stroke:none;" d="M105 224L106 225L105 224z"/>
<path style="fill:#bbdbfd; stroke:none;" d="M254 224L255 225L254 224M308 224L309 225L308 224M334 224L335 225L334 224M372 224L373 225L372 224M389 224L390 225L389 224z"/>
<path style="fill:#d5e8fd; stroke:none;" d="M104.333 225.667L104.667 226.333L104.333 225.667z"/>
<path style="fill:#bbdbfd; stroke:none;" d="M336 225L337 226L336 225M463 225L464 226L463 225M337 226L338 227L337 226M371 226L372 227L371 226M388 226L389 227L388 226z"/>
<path style="fill:#d5e8fd; stroke:none;" d="M103 227L104 228L103 227z"/>
<path style="fill:#bbdbfd; stroke:none;" d="M304 227L305 228L304 227z"/>
<path style="fill:#d5e8fd; stroke:none;" d="M102 228L103 229L102 228z"/>
<path style="fill:#bbdbfd; stroke:none;" d="M303 228L304 229L303 228M370 228L371 229L370 228M387 228L388 229L387 228M302 229L303 230L302 229z"/>
<path style="fill:#d5e8fd; stroke:none;" d="M101 230L102 231L101 230z"/>
<path style="fill:#bbdbfd; stroke:none;" d="M301 230L302 231L301 230M369 230L370 231L369 230M386 230L387 231L386 230z"/>
<path style="fill:#d5e8fd; stroke:none;" d="M100 231L101 232L100 231z"/>
<path style="fill:#bbdbfd; stroke:none;" d="M251 231L252 232L251 231M342 231L343 232L342 231z"/>
<path style="fill:#d5e8fd; stroke:none;" d="M99.3333 232.667L99.6667 233.333L99.3333 232.667z"/>
<path style="fill:#bbdbfd; stroke:none;" d="M368 232L369 233L368 232M385 232L386 233L385 232M466 232L467 233L466 232M299 233L300 234L299 233z"/>
<path style="fill:#d5e8fd; stroke:none;" d="M98 234L99 235L98 234z"/>
<path style="fill:#bbdbfd; stroke:none;" d="M344 234L345 235L344 234M367 234L368 235L367 234M384 234L385 235L384 234z"/>
<path style="fill:#d5e8fd; stroke:none;" d="M97 235L98 236L97 235z"/>
<path style="fill:#bbdbfd; stroke:none;" d="M249 236L250 237L249 236M318.667 236.333L319.333 236.667L318.667 236.333z"/>
<path style="fill:#97c3fb; stroke:none;" d="M320 236.627C306.553 238.79 309.66 259.489 323 257.731C336.361 255.971 333.508 234.453 320 236.627z"/>
<path style="fill:#bbdbfd; stroke:none;" d="M323.667 236.333L324.333 236.667L323.667 236.333M345 236L346 237L345 236M366 236L367 237L366 236M383 236L384 237L383 236z"/>
<path style="fill:#d5e8fd; stroke:none;" d="M96 237L97 238L96 237z"/>
<path style="fill:#bbdbfd; stroke:none;" d="M316 237L317 238L316 237M326 237L327 238L326 237z"/>
<path style="fill:#d5e8fd; stroke:none;" d="M95 238L96 239L95 238z"/>
<path style="fill:#bbdbfd; stroke:none;" d="M328 238L329 239L328 238M365 238L366 239L365 238M382 238L383 239L382 238z"/>
<path style="fill:#d5e8fd; stroke:none;" d="M94 239L95 240L94 239z"/>
<path style="fill:#bbdbfd; stroke:none;" d="M248 239L249 240L248 239M296.333 239.667L296.667 240.333L296.333 239.667M313 239L314 240L313 239M329 239L330 240L329 239M346 239L347 240L346 239M364 240L365 241L364 240M381 240L382 241L381 240z"/>
<path style="fill:#d5e8fd; stroke:none;" d="M93 241L94 242L93 241M92 242L93 243L92 242z"/>
<path style="fill:#bbdbfd; stroke:none;" d="M311 242L312 243L311 242M331 242L332 243L331 242M347 242L347 246L348 246L347 242M363 242L364 243L363 242M380 242L381 243L380 242M247 243L248 244L247 243z"/>
<path style="fill:#d5e8fd; stroke:none;" d="M91 244L92 245L91 244z"/>
<path style="fill:#bbdbfd; stroke:none;" d="M295 244L295 250L296 250L295 244M362 244L363 245L362 244M379 244L380 245L379 244z"/>
<path style="fill:#d5e8fd; stroke:none;" d="M90 245L91 246L90 245z"/>
<path style="fill:#bbdbfd; stroke:none;" d="M310 245L310 249L311 249L310 245M332 245L332 249L333 249L332 245z"/>
<path style="fill:#d5e8fd; stroke:none;" d="M89 246L90 247L89 246z"/>
<path style="fill:#bbdbfd; stroke:none;" d="M246 246L247 247L246 246M361 246L362 247L361 246M378 246L379 247L378 246z"/>
<path style="fill:#d5e8fd; stroke:none;" d="M88 248L89 249L88 248z"/>
<path style="fill:#bbdbfd; stroke:none;" d="M347 248L347 252L348 252L347 248M360 248L361 249L360 248M377 248L378 249L377 248z"/>
<path style="fill:#d5e8fd; stroke:none;" d="M87 249L88 250L87 249z"/>
<path style="fill:#bbdbfd; stroke:none;" d="M359 250L360 251L359 250M376 250L377 251L376 250z"/>
<path style="fill:#d5e8fd; stroke:none;" d="M86 251L87 252L86 251z"/>
<path style="fill:#bbdbfd; stroke:none;" d="M245 251L246 252L245 251M311 251L312 252L311 251M331 251L332 252L331 251z"/>
<path style="fill:#d5e8fd; stroke:none;" d="M85 252L86 253L85 252z"/>
<path style="fill:#bbdbfd; stroke:none;" d="M358 252L359 253L358 252M375 252L376 253L375 252z"/>
<path style="fill:#d5e8fd; stroke:none;" d="M84 253L85 254L84 253z"/>
<path style="fill:#bbdbfd; stroke:none;" d="M312 253L313 254L312 253M330 253L331 254L330 253M472 253L473 254L472 253M296 254L297 255L296 254M313 254L314 255L313 254M329 254L330 255L329 254M346.333 254.667L346.667 255.333L346.333 254.667M374 254L375 255L374 254z"/>
<path style="fill:#d5e8fd; stroke:none;" d="M83 255L84 256L83 255z"/>
<path style="fill:#bbdbfd; stroke:none;" d="M314 255L315 256L314 255M328 255L329 256L328 255z"/>
<path style="fill:#d5e8fd; stroke:none;" d="M82 256L83 257L82 256z"/>
<path style="fill:#bbdbfd; stroke:none;" d="M244 256L245 257L244 256M315 256L316 257L315 256M327 256L328 257L327 256M373 256L374 257L373 256M297 257L298 258L297 257M317.667 257.333L318.333 257.667L317.667 257.333M325 257L326 258L325 257M345 257L346 258L345 257z"/>
<path style="fill:#d5e8fd; stroke:none;" d="M81 258L82 259L81 258z"/>
<path style="fill:#bbdbfd; stroke:none;" d="M372 258L373 259L372 258z"/>
<path style="fill:#d5e8fd; stroke:none;" d="M80 259L81 260L80 259z"/>
<path style="fill:#bbdbfd; stroke:none;" d="M298 259L299 260L298 259M344 259L345 260L344 259z"/>
<path style="fill:#d5e8fd; stroke:none;" d="M79 260L80 261L79 260z"/>
<path style="fill:#bbdbfd; stroke:none;" d="M371 260L372 261L371 260M299 261L300 262L299 261M343 261L344 262L343 261z"/>
<path style="fill:#d5e8fd; stroke:none;" d="M78 262L79 263L78 262z"/>
<path style="fill:#bbdbfd; stroke:none;" d="M300 262L301 263L300 262z"/>
<path style="fill:#d5e8fd; stroke:none;" d="M77 263L78 264L77 263z"/>
<path style="fill:#bbdbfd; stroke:none;" d="M243 263L243 266L244 266L243 263M353 263L354 264L353 263z"/>
<path style="fill:#d5e8fd; stroke:none;" d="M76 265L77 266L76 265z"/>
<path style="fill:#bbdbfd; stroke:none;" d="M352 265L353 266L352 265z"/>
<path style="fill:#d5e8fd; stroke:none;" d="M75 266L76 267L75 266M74.3333 267.667L74.6667 268.333L74.3333 267.667z"/>
<path style="fill:#bbdbfd; stroke:none;" d="M351 267L352 268L351 267M306 268L307 269L306 268M336 268L337 269L336 268z"/>
<path style="fill:#d5e8fd; stroke:none;" d="M73 269L74 270L73 269z"/>
<path style="fill:#bbdbfd; stroke:none;" d="M335 269L336 270L335 269M350 269L351 270L350 269M367 269L368 270L367 269z"/>
<path style="fill:#d5e8fd; stroke:none;" d="M72 270L73 271L72 270z"/>
<path style="fill:#bbdbfd; stroke:none;" d="M309 270L310 271L309 270M333 270L334 271L333 270M311 271L312 272L311 271M331 271L332 272L331 271M349 271L350 272L349 271M366 271L367 272L366 271z"/>
<path style="fill:#d5e8fd; stroke:none;" d="M71 272L72 273L71 272z"/>
<path style="fill:#bbdbfd; stroke:none;" d="M314.667 272.333L315.333 272.667L314.667 272.333M327.667 272.333L328.333 272.667L327.667 272.333z"/>
<path style="fill:#d5e8fd; stroke:none;" d="M70 273L71 274L70 273z"/>
<path style="fill:#bbdbfd; stroke:none;" d="M319 273L319 274L324 274L319 273M348 273L349 274L348 273M365 273L366 274L365 273z"/>
<path style="fill:#d5e8fd; stroke:none;" d="M69 274L70 275L69 274z"/>
<path style="fill:#bbdbfd; stroke:none;" d="M347 275L348 276L347 275M364 275L365 276L364 275M383.667 275.333L384.333 275.667L383.667 275.333z"/>
<path style="fill:#d5e8fd; stroke:none;" d="M385 275.518C351.543 282.664 362.934 334.061 396 326.471C428.373 319.039 417.298 268.619 385 275.518z"/>
<path style="fill:#bbdbfd; stroke:none;" d="M395.667 275.333L396.333 275.667L395.667 275.333z"/>
<path style="fill:#d5e8fd; stroke:none;" d="M68 276L69 277L68 276z"/>
<path style="fill:#bbdbfd; stroke:none;" d="M380.667 276.333L381.333 276.667L380.667 276.333M399 276L400 277L399 276z"/>
<path style="fill:#d5e8fd; stroke:none;" d="M67 277L68 278L67 277z"/>
<path style="fill:#bbdbfd; stroke:none;" d="M346 277L347 278L346 277M363 277L364 278L363 277M378 277L379 278L378 277M401 277L402 278L401 277M376 278L377 279L376 278M403 278L404 279L403 278z"/>
<path style="fill:#d5e8fd; stroke:none;" d="M66 279L67 280L66 279z"/>
<path style="fill:#bbdbfd; stroke:none;" d="M345 279L346 280L345 279M362 279L363 280L362 279M375 279L376 280L375 279z"/>
<path style="fill:#d5e8fd; stroke:none;" d="M65 280L66 281L65 280z"/>
<path style="fill:#bbdbfd; stroke:none;" d="M406 280L407 281L406 280z"/>
<path style="fill:#d5e8fd; stroke:none;" d="M64 281L65 282L64 281z"/>
<path style="fill:#bbdbfd; stroke:none;" d="M344 281L345 282L344 281M361 281L362 282L361 281M372 281L373 282L372 281M407 281L408 282L407 281M371 282L372 283L371 282M408 282L409 283L408 282z"/>
<path style="fill:#d5e8fd; stroke:none;" d="M63 283L64 284L63 283z"/>
<path style="fill:#bbdbfd; stroke:none;" d="M343 283L344 284L343 283M360 283L361 284L360 283M370 283L371 284L370 283M409 283L410 284L409 283z"/>
<path style="fill:#d5e8fd; stroke:none;" d="M62.3333 284.667L62.6667 285.333L62.3333 284.667z"/>
<path style="fill:#bbdbfd; stroke:none;" d="M243 284L243 287L244 287L243 284M410 284L411 285L410 284M342 285L343 286L342 285M359 285L360 286L359 285z"/>
<path style="fill:#d5e8fd; stroke:none;" d="M61 286L62 287L61 286z"/>
<path style="fill:#bbdbfd; stroke:none;" d="M368 286L369 287L368 286z"/>
<path style="fill:#d5e8fd; stroke:none;" d="M60.3333 287.667L60.6667 288.333L60.3333 287.667z"/>
<path style="fill:#bbdbfd; stroke:none;" d="M341 287L342 288L341 287M358 287L359 288L358 287M412 287L413 288L412 287z"/>
<path style="fill:#d5e8fd; stroke:none;" d="M59 289L60 290L59 289z"/>
<path style="fill:#bbdbfd; stroke:none;" d="M340 289L341 290L340 289M357 289L358 290L357 289M366 289L367 290L366 289M413 289L414 290L413 289M386.667 290.333L387.333 290.667L386.667 290.333z"/>
<path style="fill:#97c3fb; stroke:none;" d="M388.004 290.598C374.883 293.431 378.704 313.981 391.999 311.566C405.694 309.078 401.596 287.663 388.004 290.598z"/>
<path style="fill:#bbdbfd; stroke:none;" d="M392.667 290.333L393.333 290.667L392.667 290.333z"/>
<path style="fill:#d5e8fd; stroke:none;" d="M58 291L59 292L58 291z"/>
<path style="fill:#bbdbfd; stroke:none;" d="M339 291L340 292L339 291M356 291L357 292L356 291M384 291L385 292L384 291M395 291L396 292L395 291M414 291L415 292L414 291z"/>
<path style="fill:#d5e8fd; stroke:none;" d="M57.3333 292.667L57.6667 293.333L57.3333 292.667z"/>
<path style="fill:#bbdbfd; stroke:none;" d="M365 292L366 293L365 292M383 292L384 293L383 292M244 293L245 294L244 293M338 293L339 294L338 293M355 293L356 294L355 293z"/>
<path style="fill:#d5e8fd; stroke:none;" d="M56 294L57 295L56 294z"/>
<path style="fill:#bbdbfd; stroke:none;" d="M381 294L382 295L381 294M415 294L416 295L415 294M337 295L338 296L337 295M354 295L355 296L354 295M364.333 295.667L364.667 296.333L364.333 295.667M380 295L381 296L380 295M399 295L400 296L399 295z"/>
<path style="fill:#d5e8fd; stroke:none;" d="M55 296L56 297L55 296z"/>
<path style="fill:#bbdbfd; stroke:none;" d="M336 297L337 298L336 297M353 297L354 298L353 297M400 297L401 298L400 297z"/>
<path style="fill:#d5e8fd; stroke:none;" d="M54 298L55 299L54 298z"/>
<path style="fill:#bbdbfd; stroke:none;" d="M379.333 298.667L379.667 299.333L379.333 298.667z"/>
<path style="fill:#d5e8fd; stroke:none;" d="M53.3333 299.667L53.6667 300.333L53.3333 299.667z"/>
<path style="fill:#bbdbfd; stroke:none;" d="M245 299L246 300L245 299M352 299L353 300L352 299M416 299L416 303L417 303L416 299M351 301L352 302L351 301z"/>
<path style="fill:#d5e8fd; stroke:none;" d="M471 301L472 302L471 301M52 302L53 303L52 302z"/>
<path style="fill:#bbdbfd; stroke:none;" d="M379.333 302.667L379.667 303.333L379.333 302.667M246 303L247 304L246 303M350 303L351 304L350 303z"/>
<path style="fill:#d5e8fd; stroke:none;" d="M51 304L52 305L51 304z"/>
<path style="fill:#bbdbfd; stroke:none;" d="M400 304L401 305L400 304M349 305L350 306L349 305M364.333 305.667L364.667 306.333L364.333 305.667z"/>
<path style="fill:#d5e8fd; stroke:none;" d="M470 305L471 306L470 305M50 306L51 307L50 306z"/>
<path style="fill:#bbdbfd; stroke:none;" d="M332 306L333 307L332 306M380 306L381 307L380 306M399 306L400 307L399 306M381 307L382 308L381 307M415.333 307.667L415.667 308.333L415.333 307.667z"/>
<path style="fill:#d5e8fd; stroke:none;" d="M49.3333 308.667L49.6667 309.333L49.3333 308.667z"/>
<path style="fill:#bbdbfd; stroke:none;" d="M331 308L332 309L331 308M365 309L366 310L365 309z"/>
<path style="fill:#d5e8fd; stroke:none;" d="M48.3333 310.667L48.6667 311.333L48.3333 310.667z"/>
<path style="fill:#97c3fb; stroke:none;" d="M46 318C40.7319 340.772 36.0417 361.414 39.4282 385C48.3438 447.093 94.9293 497.91 157 509.54C181.167 514.068 203.3 510.892 227 506L227 505C172.249 487.185 131.652 436.371 126.17 379C124.341 359.861 129.474 342.681 131 324C123.148 325.869 114.627 324.081 108 319.362C104.498 316.868 100.705 310.867 96 310.867C90.1417 310.867 84.4548 319.751 79 322.12C66.0827 327.731 57.9572 322.351 46 318z"/>
<path style="fill:#bbdbfd; stroke:none;" d="M248 310L249 311L248 310M330 310L331 311L330 310M384 310L385 311L384 310M395 310L396 311L395 310M414 310L415 311L414 310M386.667 311.333L387.333 311.667L386.667 311.333M393 311L394 312L393 311M329 312L330 313L329 312M366 312L367 313L366 312z"/>
<path style="fill:#d5e8fd; stroke:none;" d="M47 313L48 314L47 313z"/>
<path style="fill:#bbdbfd; stroke:none;" d="M249 313L250 314L249 313M328 314L329 315L328 314M345 314L346 315L345 314M367 314L368 315L367 314M412 314L413 315L412 314z"/>
<path style="fill:#d5e8fd; stroke:none;" d="M46.3333 315.667L46.6667 316.333L46.3333 315.667z"/>
<path style="fill:#bbdbfd; stroke:none;" d="M368 315L369 316L368 315M327 316L328 317L327 316M344 316L345 317L344 316M411 316L412 317L411 316M410 317L411 318L410 317M251 318L252 319L251 318M326 318L327 319L326 318M343 318L344 319L343 318M370 318L371 319L370 318M409 318L410 319L409 318M371 319L372 320L371 319M325 320L326 321L325 320M342 320L343 321L342 320M372 320L373 321L372 320M407 320L408 321L407 320M373 321L374 322L373 321M406 321L407 322L406 321M324 322L325 323L324 322M341 322L342 323L341 322M405 322L406 323L405 322M253 323L254 324L253 323M376 323L377 324L376 323M403 323L404 324L403 323M323 324L324 325L323 324M340 324L341 325L340 324M378 324L379 325L378 324M401 324L402 325L401 324M254 325L255 326L254 325M380 325L381 326L380 325M399 325L400 326L399 325M322.333 326.667L322.667 327.333L322.333 326.667M339 326L340 327L339 326M383.667 326.333L384.333 326.667L383.667 326.333M396 326L397 327L396 326M462 326L463 327L462 326M255 327L256 328L255 327M42 328L42 331L43 331L42 328M130 328L130 331L131 331L130 328M338 328L339 329L338 328M256 329L257 330L256 329M322.333 330.667L322.667 331.333L322.333 330.667M337 330L338 331L337 330M460 330L461 331L460 330M257 331L258 332L257 331M41 332L41 335L42 335L41 332M129 332L129 335L130 335L129 332M336 332L337 333L336 332M323 333L324 334L323 333M324 334L325 335L324 334M333 335L334 336L333 335M40 336L40 340L41 340L40 336M260 336L261 337L260 336M328 336L328 337L332 337L328 336M128 337L128 340L129 340L128 337M262 339L263 340L262 339z"/>
<path style="fill:#d5e8fd; stroke:none;" d="M39 341L40 342L39 341z"/>
<path style="fill:#bbdbfd; stroke:none;" d="M39 342L39 346L40 346L39 342M127 342L127 347L128 347L127 342M264 342L265 343L264 342M267 346L268 347L267 346M268 347L269 348L268 347M38 349L38 355L39 355L38 349M126 349L126 357L127 357L126 349M447 349L448 350L447 349M271 351L272 352L271 351M272 352L273 353L272 352M273 353L274 354L273 353M274 354L275 355L274 354M275 355L276 356L275 355M276 356L277 357L276 356M277 357L278 358L277 357M278 358L279 359L278 358M279 359L280 360L279 359M280 360L281 361L280 360M281 361L282 362L281 361z"/>
<path style="fill:#d5e8fd; stroke:none;" d="M432 364L433 365L432 364z"/>
<path style="fill:#bbdbfd; stroke:none;" d="M286 365L287 366L286 365M287 366L288 367L287 366M290 368L291 369L290 368M291 369L292 370L291 369M424 370L425 371L424 370M294 371L295 372L294 371M296 372L297 373L296 372M297 373L298 374L297 373M126 374L126 382L127 382L126 374M299 374L300 375L299 374M38 375L38 382L39 382L38 375M301 375L302 376L301 375M416 375L417 376L416 375M304 377L305 378L304 377M306 378L307 379L306 378M308 379L309 380L308 379M310 380L311 381L310 380M313 381L314 382L313 381M315 382L316 383L315 382M318 383L319 384L318 383M320.667 384.333L321.333 384.667L320.667 384.333M39 385L39 389L40 389L39 385M127 385L127 389L128 389L127 385M323 385L324 386L323 385M327 386L328 387L327 386z"/>
<path style="fill:#d5e8fd; stroke:none;" d="M39 389L40 390L39 389z"/>
<path style="fill:#bbdbfd; stroke:none;" d="M40 391L40 395L41 395L40 391M128 391L128 395L129 395L128 391M328 391L329 392L328 391M41 396L41 399L42 399L41 396M129 396L129 399L130 399L129 396M327 396L328 397L327 396z"/>
<path style="fill:#d5e8fd; stroke:none;" d="M41 399L42 400L41 399z"/>
<path style="fill:#bbdbfd; stroke:none;" d="M130 400L130 403L131 403L130 400M42.3333 401.667L42.6667 402.333L42.3333 401.667z"/>
<path style="fill:#d5e8fd; stroke:none;" d="M42 403L43 404L42 403z"/>
<path style="fill:#bbdbfd; stroke:none;" d="M43 404L43 407L44 407L43 404M131 404L131 407L132 407L131 404M44.3333 408.667L44.6667 409.333L44.3333 408.667M132.333 408.667L132.667 409.333L132.333 408.667M45.3333 411.667L45.6667 412.333L45.3333 411.667M133.333 411.667L133.667 412.333L133.333 411.667M46.3333 414.667L46.6667 415.333L46.3333 414.667M134.333 414.667L134.667 415.333L134.333 414.667M135.333 416.667L135.667 417.333L135.333 416.667M47.3333 417.667L47.6667 418.333L47.3333 417.667M48.3333 419.667L48.6667 420.333L48.3333 419.667M136.333 419.667L136.667 420.333L136.333 419.667M49.3333 422.667L49.6667 423.333L49.3333 422.667M137 422L138 423L137 422M50.3333 424.667L50.6667 425.333L50.3333 424.667M138 424L139 425L138 424M139.333 426.667L139.667 427.333L139.333 426.667M51 427L52 428L51 427M140.333 428.667L140.667 429.333L140.333 428.667M52 429L53 430L52 429M141.333 430.667L141.667 431.333L141.333 430.667M53 431L54 432L53 431M142.333 432.667L142.667 433.333L142.333 432.667M54 433L55 434L54 433M143.333 434.667L143.667 435.333L143.333 434.667M55 435L56 436L55 435M56.3333 436.667L56.6667 437.333L56.3333 436.667M144 436L145 437L144 436M312 436L313 437L312 436M57.3333 438.667L57.6667 439.333L57.3333 438.667M145 438L146 439L145 438M58 440L59 441L58 440M146 440L147 441L146 440M147.333 441.667L147.667 442.333L147.333 441.667M59 442L60 443L59 442M60.3333 443.667L60.6667 444.333L60.3333 443.667M148 443L149 444L148 443M308 443L309 444L308 443M61 445L62 446L61 445M149 445L150 446L149 445M62.3333 446.667L62.6667 447.333L62.3333 446.667M150 446L151 447L150 446M63 448L64 449L63 448M151 448L152 449L151 448M64.3333 449.667L64.6667 450.333L64.3333 449.667M152 449L153 450L152 449M65 451L66 452L65 451M153 451L154 452L153 451M66 452L67 453L66 452M154 452L155 453L154 452M155 453L156 454L155 453M67 454L68 455L67 454M68 455L69 456L68 455M156 455L157 456L156 455M69 456L70 457L69 456M157 456L158 457L157 456M299 456L300 457L299 456M70.3333 457.667L70.6667 458.333L70.3333 457.667M158 457L159 458L158 457M159 458L160 459L159 458M71 459L72 460L71 459M72 460L73 461L72 460M160 460L161 461L160 460M73 461L74 462L73 461M161 461L162 462L161 461M74 462L75 463L74 462M162 462L163 463L162 462M75 463L76 466L77 466L75 463M163 463L164 464L163 463z"/>
<path style="fill:#d5e8fd; stroke:none;" d="M75 464L76 465L75 464z"/>
<path style="fill:#bbdbfd; stroke:none;" d="M164 464L165 465L164 464M165 465L166 466L165 465M77 466L78 467L77 466M166 466L167 467L166 466M78 467L79 468L78 467M167 467L168 468L167 467M79 468L80 469L79 468M80 469L81 470L80 469M169 469L170 470L169 469M81 470L82 471L81 470M170 470L171 471L170 470M82 471L83 472L82 471M171 471L172 472L171 471M83 472L84 473L83 472M172 472L173 473L172 472M84 473L85 474L84 473M173 473L174 474L173 473M85 474L86 475L85 474M174 474L175 475L174 474M86.6667 475.333L87.3333 475.667L86.6667 475.333M175 475L176 476L175 475M88 476L89 477L88 476M176 476L177 477L176 476M89 477L90 478L89 477M177 477L178 478L177 477M279 477L280 478L279 477M90 478L91 479L90 478M178 478L179 479L178 478M91 479L92 480L91 479M180 479L181 480L180 479M92 480L93 481L92 480M181 480L182 481L181 480M94 481L95 482L94 481M182 481L183 482L182 481M95 482L96 483L95 482M183 482L184 483L183 482M96 483L97 484L96 483M185 483L186 484L185 483z"/>
<path style="fill:#d5e8fd; stroke:none;" d="M97 484L98 485L97 484z"/>
<path style="fill:#bbdbfd; stroke:none;" d="M98 484L99 485L98 484M186 484L187 485L186 484M99 485L100 486L99 485M187 485L188 486L187 485M100.667 486.333L101.333 486.667L100.667 486.333M189 486L190 487L189 486M102 487L103 488L102 487M190.667 487.333L191.333 487.667L190.667 487.333M103.667 488.333L104.333 488.667L103.667 488.333M192 488L193 489L192 488M105 489L106 490L105 489M193 489L194 490L193 489M263 489L264 490L263 489M106.667 490.333L107.333 490.667L106.667 490.333M195 490L196 491L195 490M108 491L109 492L108 491M197 491L198 492L197 491M110 492L111 493L110 492M198.667 492.333L199.333 492.667L198.667 492.333M258 492L259 493L258 492M111.667 493.333L112.333 493.667L111.667 493.333M200 493L201 494L200 493M113 494L114 495L113 494M202 494L203 495L202 494M115.667 495.333L116.333 495.667L115.667 495.333M204 495L205 496L204 495M117.667 496.333L118.333 496.667L117.667 496.333M206 496L207 497L206 496M119 497L120 498L119 497M207.667 497.333L208.333 497.667L207.667 497.333M121.667 498.333L122.333 498.667L121.667 498.333M210 498L211 499L210 498M123.667 499.333L124.333 499.667L123.667 499.333M212 499L213 500L212 499M125.667 500.333L126.333 500.667L125.667 500.333M214.667 500.333L215.333 500.667L214.667 500.333M242 500L243 501L242 500M128 501L129 502L128 501M216.667 501.333L217.333 501.667L216.667 501.333M240 501L241 502L240 501M130.667 502.333L131.333 502.667L130.667 502.333M219.667 502.333L220.333 502.667L219.667 502.333M133.667 503.333L134.333 503.667L133.667 503.333M222.667 503.333L223.333 503.667L222.667 503.333M136.667 504.333L137.333 504.667L136.667 504.333M225.667 504.333L226.333 504.667L225.667 504.333z"/>
<path style="fill:#d5e8fd; stroke:none;" d="M138 505L139 506L138 505z"/>
<path style="fill:#bbdbfd; stroke:none;" d="M139.667 505.333L140.333 505.667L139.667 505.333M227 505L228 506L227 505M142.667 506.333L143.333 506.667L142.667 506.333M224 506L224 507L227 507L224 506M145 507L145 508L148 508L145 507M220 507L220 508L223 508L220 507z"/>
<path style="fill:#d5e8fd; stroke:none;" d="M149 508L150 509L149 508z"/>
<path style="fill:#bbdbfd; stroke:none;" d="M150 508L150 509L153 509L150 508M216 508L216 509L219 509L216 508M154 509L154 510L157 510L154 509M211 509L211 510L214 510L211 509M160 510L160 511L164 511L160 510M205 510L205 511L209 511L205 510M167 511L167 512L174 512L167 511M196 511L196 512L201 512L196 511z"/>
</svg>
